<svg xmlns="http://www.w3.org/2000/svg"  viewBox="0 0 1623 976">
    <style>
        svg {
            background-color: transparent;
            width: 100%;
        }

        svg .draw {
            fill: none;
            stroke-dasharray: 1565;
            stroke-dashoffset: 1565;
            stroke-width: 2;
            animation: animate 3s ease-in forwards;
        }

        @keyframes animate {
            0% {
                stroke: #fff;
            }
        
            95% {
                stroke: #2b6371;
            }
        
            100% {
                stroke: #2b6371;
                stroke-dashoffset: 0;

            }
        }
    </style>
    <path class="draw" d="M188 863l-34 15-85 33-9 2-1-3 1-1c4 0 6 0 7-4l33-12 86-37 2 7z"/>
    <path class="draw" d="M71 935l15 40h-7l-14-37-8-21 4 1 2-3 8 20zm-9-13l1 1v-1h-1zm5 13l1 1v-1h-1zm2 5l1 1v-1h-1zm1 3l1 1v-1h-1zm2 5l1 1v-1h-1zm2 5l1 1v-1h-1zm1 3l1 1v-1h-1zm2 5l1 1v-1h-1zm3 8l1 1v-1h-1zm1 3l1 1v-1h-1z"/>
    <path class="draw" d="M226 968l-10-29-18-50-6-17-2-8 5-3 11 31 20 55 6 17c1 3 2 6 0 9-1 2-4 2-6 2v-7z"/>
    <path class="draw" d="M44 899l15 9-7 5 4 4c-18 3-36 17-56 17v-2l5-1c-3 0-4 0-5-3 13 1 36-13 50-16v-2c-14-5-21-17-38-17l5-3-1-3c12 0 18 6 28 12zm-6 0l1 1v-1h-1zm10 16l1 1v-1h-1z"/>
    <path class="draw" d="M5 814l7 52 2 18c0 3-2 4-5 6l-6-42-3-26 1-10-1-21c3 5 4 17 5 23z"/>
    <path class="draw" d="M37 648l62 37 34 20c-1 2-2 5-5 5l-9-5-18-11-77-46c-4-3-21-13-23-16l-1-5 37 21z"/>
    <path class="draw" d="M101 763l-5 6-23 4-73 11v-6l101-15zm-10 4l1 1v-1h-1zm-7 1l1 1v-1h-1zm-7 1l1 1v-1h-1zm-6 1l1 1v-1h-1zm-7 1l1 1v-1h-1zm-7 1l1 1v-1h-1zm-6 1l1 1v-1h-1zm-7 1l1 1v-1h-1zm-7 1l1 1v-1h-1z"/>
    <path class="draw" d="M133 717l-5 10-11 20-8 14-5 12-44 73-7-2 32-53c4-8 10-20 18-24-3-8 1-13 6-20l20-36 4 6z"/>
    <path class="draw" d="M61 863l6 42-3 1-1-4-1 5c-3-5-3-17-4-23l-5-37c8 2 7 8 8 16zm-4-4l1 1v-1h-1zm1 8l1 1v-1h-1zm2 15l1 1v-1h-1z"/>
    <path class="draw" d="M246 538c-2 7-13 24-17 32l-22 40-12 21c-4 5-6 0-11 7l-15 24-29 48 23 14 53 32 22 14c-1 2-2 4-4 4-2 1-5-1-7-3l-15-9-52-32c-7-4-21-12-26-18 3-2 0-3 0-6l3-6 24-39 20-31c6-7 7-2 11-7l16-28 33-59 5 2zm-5 3l1 1v-1h-1zM139 703l1 1v-1h-1zm-3 5l1 1v-1h-1zm3 5l1 1v-1h-1zm5 3l1 1v-1h-1z"/>
    <path class="draw" d="M794 529l-12-11-15-16-25-25-19-20c-1-2-3-7 1-7 2 0 5 3 6 4l11 11 12 13 32 33 10 10c3 5 2 9 10 8 5 7 13 12 15 20l-2 3c-9-5-16-16-24-23z"/>
    <path class="draw" d="M586 788l68 31 19 8c4 2 8 3 11 6l-13 1c-10-2-20-9-29-14l-31-12-19-9c-6-3-21-10-23-16-2-3-2-7-2-10 7 5 9 9 19 15zm9 8l1 1v-1h-1zm2 1l1 1v-1h-1zm2 1l1 1v-1h-1zm9 4l1 1v-1h-1zm2 1l1 1v-1h-1zm5 2l1 1v-1h-1zm2 1l1 1v-1h-1zm5 2l1 1v-1h-1zm5 2l1 1v-1h-1zm5 2l1 1v-1h-1zm5 2l1 1v-1h-1zm2 1l1 1v-1h-1zm20 10l1 1v-1h-1zm7 3l1 1v-1h-1zm5 2l1 1v-1h-1zm2 1l1 1v-1h-1zm3 1l1 1v-1h-1z"/>
    <path class="draw" d="M240 781l-9 14-25 42c-4 7-9 19-16 22l-1-5 10-19 34-57 7 3z"/>
    <path class="draw" d="M310 780l1 23v-23h2v26l-4 15 12 33 28 78-7 4 13 1-2 3c-10 0-20 5-29 9l-45 19c-9 3-22 10-32 6l54-23 41-17-11-32-19-52-10-29c-1-7 4-8 5-14v-27h3zm33 147l1 1v-1h-1zm1 3l1 1v-1h-1zm-2 7l1 1v-1h-1zm-3 1l1 1v-1h-1zm-10 4l1 1v-1h-1zm-5 2l1 1v-1h-1zm-2 1l1 1v-1h-1zm-5 2l1 1v-1h-1zm-2 1l1 1v-1h-1zm-5 2l1 1v-1h-1zm-2 1l1 1v-1h-1zm-5 2l1 1v-1h-1zm-2 1l1 1v-1h-1zm-5 2l1 1v-1h-1zm-7 3l1 1v-1h-1zm-5 2l1 1v-1h-1zm-7 3l1 1v-1h-1zm-7 3l1 1v-1h-1z"/>
    <path class="draw" d="M240 781l-9 14-25 42c-4 7-9 19-16 22l-1-5 10-19 34-57 7 3z"/>
    <path class="draw" d="M310 780l1 23v-23h2v26l-4 15 12 33 28 78-7 4 13 1-2 3c-10 0-20 5-29 9l-45 19c-9 3-22 10-32 6l54-23 41-17-11-32-19-52-10-29c-1-7 4-8 5-14v-27h3zm33 147l1 1v-1h-1zm1 3l1 1v-1h-1zm-2 7l1 1v-1h-1zm-3 1l1 1v-1h-1zm-10 4l1 1v-1h-1zm-5 2l1 1v-1h-1zm-2 1l1 1v-1h-1zm-5 2l1 1v-1h-1zm-2 1l1 1v-1h-1zm-5 2l1 1v-1h-1zm-2 1l1 1v-1h-1zm-5 2l1 1v-1h-1zm-2 1l1 1v-1h-1zm-5 2l1 1v-1h-1zm-7 3l1 1v-1h-1zm-5 2l1 1v-1h-1zm-7 3l1 1v-1h-1zm-7 3l1 1v-1h-1z"/>
    <path class="draw" d="M401 923l34-7 45-10 16-4c8-1 8 4 14 3 8-2 15-10 22-11 13-4 19 4 31 8 6 3 13 3 18 8l-4 1 6 2c-7 2-9 0-16 0l-27 4-4-2 3-1-11 3h5l-4 4-29 9-42 8-19-3-34 7-29 5-11 5c-1 3 0 6 1 8l3 15h-5l-6-20-16 15c-3 3-5 6-9 3l-4 2c3-8 12-14 18-20 2-2 6-6 7-9l-1-6 7-2 1 6c9-4 10-3 18-10l-15 3-14-2v-3c9-2 26-6 35-5l-8 4 5 3c-2 6-5 7-10 10l15-3h-5c0-5 1-7 6-8l-2 5 36-7 20-3 17 2 14-2 18-4 27-9 18-4 20-5c-7-2-13-7-19-7-5 1-8 4-12 6-3 3-11 6-15 7-6 1-8-2-12-3l-15 2-61 14c-10 2-26 7-36 5 3-6 9-6 15-7zm131-27l1 1v-1h-1zm26 11l3 2-3 1 11-2h-4l2-2v-1c-4-1-6-1-9 2zm-67-1l1 1v-1h-1zm-23 5l1 1v-1h-1zm-23 5l1 1v-1h-1zm60 8c5 0 19-5 23-7-6 0-18 4-23 7zm-88-2l1 1v-1h-1zm-5 1l1 1v-1h-1zm25 9l6-1-6 1zm18 3l5-1-5 1zm-99 17l8-5c-4 1-5 2-8 5zm-1 0l1 1v-1h-1zm-1 1l1 1v-1h-1zm-1 1l1 1v-1h-1zm-19 18l1 1v-1h-1z"/>
    <path class="draw" d="M737 890c0 5 1 17 5 22l8 5c4 2 8 9 7 14l-7 24c-1 2-3 8-5 9-1 2-6 2-8 3v2c4 2 7 2 9 6h-20l-2-4c-3-3-16-9-21-9l-10 2-11-4-12-3c-4-1-8-6-11-9-5 5-8 4-14 4l-7 1-8-1c-3-1-3-4-5-6l-5-5-1-6c0-6 1-7 7-7l-2 9c9 4 7 9 12 10l15-2c4-1 6-5 10-4 4 2 7 9 12 10l11 3 10 3c4 1 8-2 16 0 7 1 16 8 19 8 4-1 4-7 12-6l6-19c1-3 3-7 2-10-1-9-10-9-13-13-4-6-5-18-7-25l8-2zm2 25l1 1v-1h-1zm12 8l1 1v-1h-1zm1 3l1 1v-1h-1zm0 8l1 1v-1h-1zm-93 10l1 1v-1h-1zm-27 6l11-1-11 1zm68 10l8-1-8 1zm43 1l1 1v-1h-1zm-6 1l1 1v-1h-1zm-8 7l5 3v-5l-5 2z"/>
    <path class="draw" d="M1041 507l19-5 22-7c10-3 10-5 24-8 7-2 13-4 20-1l-11 3h6c-3 5-13 5-19 7l-14 6-37 10-9 1 4 23c0 5 2 8 1 13-4 11-13 9-16 17-1 4 2 11 3 15h-4l-4 3c-1-7-4-13-2-21 2-12 11-8 14-16 2-2 1-5 0-8l-2-16c0-2-1-6-3-7-3-3-17 1-21 3-9 5-16 15-24 18l4 13c1 2 2 5 1 7s-4 2-6-1-3-12-4-16l-23 4 2-3-4-3 19-5c3-2 3-5 5-6 1-1 2 1 3 2 9-4 15-12 23-17 5-3 23-6 29-5-2 3-4 3-8 4 6 0 7-1 10 5 1-7 2-5 9-7h-9l2-2zm52-12l5-2-5 2zm-6 2l1 1v-1h-1zm-3 1l1 1v-1h-1zm-3 1l1 1v-1h-1zm-3 1l1 1v-1h-1zm-56 12l6-1-6 1zm-8 1l5-1-5 1zm-3 0l1 1v-1h-1zm-1 1l1 1v-1h-1zm-4 3l1 1v-1h-1zm-6 5l1 1v-1h-1zm-7 6l1 1v-1h-1zm-1 1l1 1v-1h-1zm50 8v-6 6zm-61-1l4 1 3-4-4-1-3 4zm7-4l1 1v-1h-1zm55 18v0zm-2 0l1 1v-1h-1zm-1 2l1 1v-1h-1zm-1 1l1 1v-1h-1zm-1 1l1 1v-1h-1zm-2 1l1 1v-1h-1zm-6 3l1 1v-1h-1zm-1 1l1 1v-1h-1zm-1 2l1 1v-1h-1zm-1 11v-7 7z"/>
    <path class="draw" d="M1054 583l-20 9-22 8-21 4-11-3-10 5-7 3 8-1-7 14-24 10-14 19-11 13-14 18c4 3 5 4 6 9l-6-1c-4-2-7-5-7-10 1-4 13-18 16-22s4-8 8-12l2 2c2-5 13-20 17-23 5-3 20-6 22-9 2-1 2-4 3-6l-22 6-10 11-17 21-3 6-10 12-19 22-5 2 1-4-5 1 3 4-5-1-19-14 5-1c1-4 3-3 6-1l12 10 22-26c5-6 7-12 14-16l-2 7 7-11-2 2h-1l-2-2v-1c6-6 17-18 21-25 5 0 7-3 11-5l21-6c5-2 9-6 14-7 8-3 11 2 17 2 12-1 26-7 37-11l3 2-2-2v-1c8-2 16-12 22-1zm-6-3l1 1v-1h-1zm-5 2l1 1v-1h-1zm-2 1l1 1v-1h-1zm-11 5l1 1v-1h-1zm-2 1l1 1v-1h-1zm-2 1l1 1v-1h-1zm-3 1l1 1v-1h-1zm-3 1l1 1v-1h-1zm-42 5l1 1v-1h-1zm-3 1l1 1v-1h-1zm12 0l1 1v-1h-1zm-14 1l1 1v-1h-1zm16 1l6-1-6 1zm-19 1l1 1v-1h-1zm-1 1l1 1v-1h-1zm-7 4l7-3-7 3zm-28 10l5-4c-4 1-4 1-5 4zm-1 0l1 1v-1h-1zm-1 1l1 1v-1h-1zm-1 1l1 1v-1h-1zm-3 4l1 1v-1h-1zm-1 1l1 1v-1h-1zm-1 1l1 1v-1h-1zm-4 5l1 1v-1h-1zm-1 1l1 1v-1h-1zm-1 1l1 1v-1h-1zm-2 3l1 1v-1h-1zm-1 1l1 1v-1h-1zm-1 1l1 1v-1h-1zm-1 1l1 1v-1h-1zm-8 12l1 1v-1h-1zm-1 1l1 1v-1h-1zm12 3l3-3-3 3zm-13-1l1 1v-1h-1zm-1 1l1 1v-1h-1zm-4 5l1 1v-1h-1zm-10 12l1 1v-1h-1zm-1 1l1 1v-1h-1zm-33 4l1 1v-1h-1zm1 1l1 1v-1h-1zm27 1l1 1v-1h-1zm-24 1l1 1v-1h-1zm23 0l1 1v-1h-1zm-22 1l1 1v-1h-1zm21 0l1 1v-1h-1zm-1 1l1 1v-1h-1zm-17 1l1 1v-1h-1zm16 0l1 1v-1h-1zm-15 1l1 1v-1h-1zm14 1l1 1v-1h-1zm-11 1l1 1v-1h-1zm10 0l1 1v-1h-1zm-9 1l1 1v-1h-1zm8 0l1 1v-1h-1zm-6 1l1 1v-1h-1z"/>
    <path class="draw" d="M879 691c0 5 1 14-1 19l-15 21-32 40c-6 8-17 23-26 27-3-10 1-11 8-18l11-13 34-43c6-8 13-14 13-24v-8h4l1 11 1-12h2zm-4 17v-5 5zm-3 3l1 1v-1h-1zm-1 1l1 1v-1h-1zm-1 2l1 1v-1h-1zm-1 1l1 1v-1h-1zm-3 4l1 1v-1h-1zm-3 4l1 1v-1h-1zm-1 1l1 1v-1h-1zm-3 4l1 1v-1h-1zm-4 5l1 1v-1h-1zm-3 4l1 1v-1h-1zm-4 5l1 1v-1h-1zm-4 5l1 1v-1h-1zm-4 5l1 1v-1h-1zm-4 5l1 1v-1h-1zm-4 5l1 1v-1h-1zm-4 5l1 1v-1h-1zm-1 1l1 1v-1h-1zm-3 4l1 1v-1h-1zm-1 1l1 1v-1h-1zm-3 4l1 1v-1h-1zm-1 1l1 1v-1h-1zm-1 1l1 1v-1h-1zm-3 4l1 1v-1h-1zm-1 1l1 1v-1h-1zm-1 1l1 1v-1h-1zm-1 1l1 1v-1h-1zm-3 3l1 1v-1h-1z"/>
    <path class="draw" d="M823 797l13-15 12-11 5-11 9-12 3-11 14-19 20-25 8-1c-2 5-7 11-11 15l-22 30c-5 8-4 10-6 15l-8 10-5 12-13 13c-7 7-11 13-19 19-5 3-7 6-12 1l12-10zm43-54l1 1v-1h-1zm-1 5l1 1v-1h-1zm-12 20l1 1v-1h-1z"/>
    <path class="draw" d="M1052 569c4-5 12-4 19-11l11-16 17-22 9-14 8-7 8-10 7-5 9-8 22-21c8-7 25-11 36-14 6-2 12-6 15 2l-3-3-13 5 7 2-2 1 17-3v3c-8 1-36 10-43 13l-36 26-9 9-17 16-10 14-7 8-9 13c-9 13-13 23-31 26l-1 8-4-5c-3 2-2-5 0-7zm142-124l1 1v-1h-1zm-17 6l-2 3 3 1-4 3 25-9c-3 0-6 0-7-3l-15 5zm-11 5l1 1v-1h-1zm-10 11c-5 4-9 6-13 12l13-9 16-11-4 1v-2c-7 2-7 4-12 9zm-18 16l5-4-5 4zm-1 0l1 1v-1h-1zm-1 1l1 1v-1h-1zm-1 1l1 1v-1h-1zm-1 1l1 1v-1h-1zm-10 10l7-7c-5 1-6 2-7 7zm-1 0l1 1v-1h-1zm-1 1l1 1v-1h-1zm-1 1l1 1v-1h-1zm-1 1l1 1v-1h-1zm-1 1l1 1v-1h-1zm-12 13l1 1v-1h-1zm-45 54l1 1v-1h-1zm-3 1l1 1v-1h-1z"/>
    <path class="draw" d="M1246 425l25-8 40-8 1 7c-16 1-32 7-48 11l-9 3-21 7-11 3h9c14 0 37-12 52-14 5 0 8 0 12 2 4 3 6 5 11 5l17-3-2 4 11-2h-8v-2l26-7-1 3c14-6 17-4 31-7l1 1v2l-22 4-16 7-37 7c-10 1-14-7-24-6l-36 12-27 2 2-3 16-2h-17l-1-10 26-8zm58-12l1 1v-1h-1zm-5 1l1 1v-1h-1zm-47 12l1 1v-1h-1zm-3 1l1 1v-1h-1zm-3 1l1 1v-1h-1zm-3 1l1 1v-1h-1zm42 1h6l-5-1-1 1zm-45 0l1 1v-1h-1zm-3 1l1 1v-1h-1zm55 0l1 1v-1h-1zm41 1l5-1-5 1zm-99 0l1 1v-1h-1zm40 0l1 1v-1h-1zm20 0l1 1v-1h-1zm-63 1l1 1v-1h-1zm65 0l1 1v-1h-1zm-68 1l1 1v-1h-1zm70 0l1 1v-1h-1zm-73 1l1 1v-1h-1zm75 0l1 1v-1h-1zm2 2l8-1-8 1z"/>
    <path class="draw" d="M1489 210l-15 8-22 32-25 22-18 18-19 22c-1-2-2-5-1-8 0-5 13-18 17-22l20-20 15-12c6-6 16-20 20-28l-36 11-15 1-38 12-1-6 37-12 18-2 39-13 21-11 3 8zm-3-4l1 1v-1h-1zm-2 1l1 1v-1h-1zm-2 1l1 1v-1h-1zm-2 1l1 1v-1h-1zm-2 1l1 1v-1h-1zm-5 3l1 1v-1h-1zm-3 2l1 1v-1h-1zm-1 1l1 1v-1h-1zm-2 6l2-5c-2 2-3 2-2 5zm-2 0l1 1v-1h-1zm-1 2l1 1v-1h-1zm-11 17l1 1v-1h-1zm-4 5l1 1v-1h-1zm-45 43l1 1v-1h-1zm-1 1l1 1v-1h-1zm-1 1l1 1v-1h-1zm-1 1l1 1v-1h-1zm-1 1l1 1v-1h-1zm-2 3l1 1v-1h-1zm-1 1l1 1v-1h-1zm-1 1l1 1v-1h-1zm-1 1l1 1v-1h-1zm-1 1l1 1v-1h-1zm-2 3l1 1v-1h-1zm-1 1l1 1v-1h-1zm-1 1l1 1v-1h-1zm-1 1l1 1v-1h-1z"/>
    <path class="draw" d="M1385 331l-6-35-14-45c-2-8 1-6-3-20l-16-47c-3-13-1-12-3-21l-6-23c-1-4 1-5 4-7l9 29 1 18 18 52 3 17 11 35 5 24c-3 3-3 4-2 9 0-4 0-5 3-7l2 18 2 11-5 5-3-13zm1-11l1 1v-1h-1zm1 5l1 1v-1h-1zm1 4l1 1v-1h-1z"/>
    <path class="draw" d="M1286 262l35-13c8-3 34-13 41-14l1 6-20 7-31 11c-7 2-19 6-24 11 7 2 8 13 11 19l22 50c6 18 8 19 0 22l-5-15-43 13c4 6 12 13 20 14l8-1 6-1 14-7 26-6c10-5 29-18 38-20 1 2 2 4 0 7-1 2-7 4-10 6l-27 14c-4 1-12 1-13 5l-10 1c-4 1-6 4-11 7l-12 2h-14c-5-2-14-8-19-7-3 0-23 6-26 8-4 3-9 8-13 9-6 3-13 1-17 1l-13 5c2-11 16-7 24-8 5-1 8-4 12-7-3 1-11 4-13 2-2-1-2-2-2-3 17-1 28-16 46-18-2-8 3-8 10-10l37-12c-2-9-14-32-18-41-3-6-9-19-8-26-6-2-8-8-2-11zm98 79l1 1v-1h-1zm-2 1l1 1v-1h-1zm-2 1l1 1v-1h-1zm-2 1l1 1v-1h-1zm-5 3l1 1v-1h-1zm-2 1l1 1v-1h-1zm-2 1l1 1v-1h-1zm-7 4l1 1v-1h-1zm-2 1l1 1v-1h-1zm-2 1l1 1v-1h-1zm-7 4l1 1v-1h-1zm-81 1l1 1v-1h-1zm71 3c4 0 6 0 9-3l-9 3zm-5 1l5-1-5 1zm-13 3c7 0 7 0 13-3-5 0-9 0-13 3zm-53-2c-6-1-22 7-26 11l21-7 13 1-8-5zm52 2l1 1v-1h-1zm-2 1l1 1v-1h-1zm10 0l1 1v-1h-1zm-13 2l1 1v-1h-1zm-38 1l1 1v-1h-1zm37 0l1 1v-1h-1zm-35 1l1 1v-1h-1zm12 5l-2 1c7-1 16-3 23-1l1-5-22 5zm-10-4l1 1v-1h-1zm2 1l1 1v-1h-1zm2 1l1 1v-1h-1zm2 1l1 1v-1h-1zm-48 1l1 1v-1h-1zm-2 1l1 1v-1h-1zm-1 1l1 1v-1h-1zm-2 1l1 1v-1h-1z"/>
    <path class="draw" d="M1336 373l4 10 8 26h30v3h-23c-5 0-7 0-10-4v5l-11 1h13l9-1h22l1 3c2-4 3-3 7-3l-4 5-1-3c-2 4-5 4-9 4-10 2-15 4-25 3l-2-4-8-1-14-2 4 12-5-2-4 2c-2-7-6-13-6-21l1-8c1-4-1-13-2-17l7-2c3 10 4 19 1 29l23 2-13-39 7 2zm-18 26v-5 5zm25 4l1 1v-1h-1zm-24 14l-3-11c-2 5 0 7 3 11zm29-2l1 1v-1h-1zm4 1l-1 6 10-4 15-3-24 1zm-31 7l1 1v-1h-1z"/>
    <path class="draw" d="M1389 379l-2-19 2-6c2-6-2-9 5-12 1 3 3 9 2 12-1 4-4 5-3 11l4 22 2 12c-1 6-3 6-8 6 3-11-1-15-2-26zm4-27l1 1v-1h-1zm2 43l1 1v-1h-1zm0 5l1 1v-1h-1z"/>
    <path class="draw" d="M1172 163l2 13 1 11 5 7 4 12 18 56 9 31c4-3 8-7 13-9 15-7 24-4 38-7 12-3 16-8 23 0-9 2-24 8-31 8l-6-1c-4 0-20 5-23 7l-9 9c-2 4 0 8 2 12 2 7 3 10 3 18l3 28v21h-6l-1-11 1-10-4-25c0-14-4-20-8-33l-18-59-9-28c-4-11-2-14-12-21 3-15 0-15-2-28l7-1zm6 37l1 1v-1h-1zm7 21l1 1v-1h-1zm1 3l1 1v-1h-1zm5 16l1 1v-1h-1zm1 3l1 1v-1h-1zm1 3l1 1v-1h-1zm5 16l1 1v-1h-1zm5 16l1 1v-1h-1zm1 3l1 1v-1h-1zm42 1l7-1-7 1zm-39 9l1 1v-1h-1zm1 3l1 1v-1h-1zm10 42v0zm3 35v-7 7z"/>
    <path class="draw" d="M1029 450l53-17 13-4 8-4c3-2 2-4 7-7l32-11 8-3c3-1 5-4 8-7l12-7 22-7c12-2 10 3 28-3 0 2 0 4-2 5l-6 1c-8 0-14-1-22 2 7 0 6 1 9 8l-16 5-11 1-24 14-27 9c-7 4-10 11-17 15-10 6-42 16-55 19l-24 6c1-4 2-4 6-6l-4-1 4-1-9-3 7-4zm155-61l1 1v-1h-1zm-25 14c6 0 6-1 11-4l6-2-4-3c-6 2-9 4-13 9zm29-8l1 1v-1h-1zm-30 8l1 1v-1h-1zm-4 3l1 1v-1h-1zm-23 8l-21 8-6 13c7-5 10-11 18-14 8-4 23-6 29-12l-20 5zm-45 21l5 2-17 10c5-1 19-6 23-9l-1-3h-2l2-2-10 2zm15 1l1 1v-1h-1zm-25 2l1 1v-1h-1zm-3 1l1 1v-1h-1zm-3 1l1 1v-1h-1zm-3 1l1 1v-1h-1zm-3 1l1 1v-1h-1zm-3 1l1 1v-1h-1zm-3 1l1 1v-1h-1zm-3 1l1 1v-1h-1zm-3 1l1 1v-1h-1zm-3 1l1 1v-1h-1zm-3 1l1 1v-1h-1zm-3 1l1 1v-1h-1zm-3 1l1 1v-1h-1zm-3 1l1 1v-1h-1zm-3 1l1 1v-1h-1zm-3 1l1 1v-1h-1zm2 2l1 1v-1h-1z"/>
    <path class="draw" d="M1419 400l25-8 11-4 12-2 51-17c6-2 7 2 12 3l16-2c8-1 26-9 32-9 5 1 7 3 14 1l30-11-3 5c6 2-2 5-4 5-6 3-13 8-20 6l2-2c-19 3-16-3-28 2 8-1 14-2 21 2l-4 2 8 2c1-2 2-2 4-1l6 4c4 1 9-3 18-3v1l-2 2 2 3c-5 3-15 7-21 4-5-1-6-7-10-7l-10 3-16 6c-9 3-13 7-23 5-7-1-9-2-13-8l19 1 15-5 22-8-10-1-26 8-19 2-36 11-61 18-37 11c-5 2-10 5-14 0 7-1 36-9 43-12-3-1-4-1-4-4l-29 7 5 4c-11 5-5-2-18-2v-3c14 0 8-5 22-2 3-3 13-5 18-7zm124-26c5 0 9 0 13-3l-13 3zm-28-2l1 1v-1h-1zm-3 1l1 1v-1h-1zm-3 1l1 1v-1h-1zm27 1l7-1-7 1zm-17 4l17-4c-7 0-11-1-17 4zm96-2l1 1v-1h-1zm-3 1l1 1v-1h-1zm-45 2l1 1v-1h-1zm-3 1l1 1v-1h-1zm-79 1l1 1v-1h-1zm21 0l1 1v-1h-1zm55 0l1 1v-1h-1zm-58 1l1 1v-1h-1zm55 0l1 1v-1h-1zm-78 1l1 1v-1h-1zm75 0l1 1v-1h-1zm-78 1l1 1v-1h-1zm19 0l1 1v-1h-1zm41 0l1 1v-1h-1zm-62 1l1 1v-1h-1zm18 0l1 1v-1h-1zm45 1l8-1-8 1zm-76 3h7l-4 5 16-5c-3 0-4 0-6-3l-13 3zm24-2l1 1v-1h-1zm-30 2l1 1v-1h-1zm-10 4l1 1v-1h-1zm14 2l1 1v-1h-1zm-23 1l1 1v-1h-1zm20 0l1 1v-1h-1zm-23 1l1 1v-1h-1zm-3 1l1 1v-1h-1zm-3 1l1 1v-1h-1zm-3 1l1 1v-1h-1zm-3 1l1 1v-1h-1zm-32 8l1 1v-1h-1z"/>
    <path class="draw" d="M1313 0c4 10 10 28 7 38l-9 30-4 13 3 13 7 22c2 4 4 10 7 12 4 2 9-1 13-1l7-1c3 3 5 2 9 1l-8-1 4-2c10-2 9 10 14 13 4 1 10-2 14-1 3 1 16 13 25 14 5 1 16-3 21-5l44-14 2 7-45 14-21 6c-8 0-26-14-29-14-4-1-13 3-16 0-3-2-5-10-8-12-4-2-11 1-14 2-11 4-19 2-23-9v-8 2h-1l-7-22c-2-6-5-12-5-18 0-4 3-9 5-13 2-8 10-30 10-37-1-10-5-21-10-29h8zm5 36v-6 6zm-2 3l1 1v-1h-1zm-1 4l1 1v-1h-1zm-1 77l1 1v-1h-1zm19 12l5 1v-3l-5 2zm131 3l1 1v-1h-1zm-3 1l1 1v-1h-1zm-102 4l1 1v-1h-1zm86 1l1 1v-1h-1zm-3 1l1 1v-1h-1zm-3 1l1 1v-1h-1zm-3 1l1 1v-1h-1zm-22 7l1 1v-1h-1zm-3 1l1 1v-1h-1zm-10 2l1 1v-1h-1zm3 0l1 1v-1h-1z"/>
    <path class="draw" d="M1121 0l2 3c2-6 5 5 6 7l10 32 10 34c2 7 5 15 5 22v6l4 16 11 37-3-1 2 5c1-4 2-1 3 1l-7 2-16-51c-3-14-1-14-2-20l-11-39-9-30-7-24h2zm2 5l1 1V5h-1zm1 3l1 1V8h-1zm4 13l1 1v-1h-1zm2 4l2 6 1-6h-3zm2 8l1 1v-1h-1zm2 7l1 1v-1h-1zm1 3l1 1v-1h-1zm1 3l1 1v-1h-1zm2 7l1 1v-1h-1zm3 10l1 1v-1h-1zm1 3l1 1v-1h-1zm2 7l1 1v-1h-1zm1 3l1 1v-1h-1zm2 7l1 1v-1h-1zm1 3l1 1v-1h-1zm1 4l1 1v-1h-1zm2 10v-6 6zm0 10l1 1v-1h-1zm1 4l1 1v-1h-1zm1 3l1 1v-1h-1zm3 10l1 1v-1h-1zm1 3l1 1v-1h-1zm5 16l1 1v-1h-1z"/>
    <path class="draw" d="M885 627l2-2h1c0 7-4 10-8 15-7 8-19 26-27 31l3-8-8 6v-5c7-5 20-21 26-29 4-5 7-10 12-13l-1 5zm-1 0l1 1v-1h-1zm-2 3l1 1v-1h-1zm-1 1l1 1v-1h-1zm-3 4l1 1v-1h-1zm-1 1l1 1v-1h-1zm-3 4l1 1v-1h-1zm-1 1l1 1v-1h-1zm-3 4l1 1v-1h-1zm-1 1l1 1v-1h-1zm-3 4l1 1v-1h-1zm-1 1l1 1v-1h-1zm-1 1l1 1v-1h-1zm-2 3l1 1v-1h-1zm-1 1l1 1v-1h-1zm-1 1l1 1v-1h-1zm-1 1l1 1v-1h-1zm-2 3l1 1v-1h-1zm-1 1l1 1v-1h-1z"/>
    <path class="draw" d="M907 636c2 4-1 6-4 5 0 0-17-12-8-17 5 1 11 8 12 12z"/>
    <path class="draw" d="M815 514c4 1 11 11 14 14l12 14 5 7 17 16 7-20 4-12c3-5 12-13 17-16v9l-12 13-3 12-7 19-8-2 2 2v1l-4-2c1 8 1 11-7 13v4l-6-3-22-23-4-6 2-4 12 7 5-5-9-8-5 5-1-3h-4l4-9c-1-3-9-14-12-14-2 0-6 4-8 5l-6-6c4-3 11-9 17-8zm-5 4l1 1v-1h-1zm-2 1l1 1v-1h-1zm8 0l1 1v-1h-1zm1 1l1 1v-1h-1zm-13 2l1 1v-1h-1zm85 0l1 1v-1h-1zm-86 1l1 1v-1h-1zm-1 1l1 1v-1h-1zm19 1l1 1v-1h-1zm1 1l1 1v-1h-1zm2 3l1 1v-1h-1zm1 1l1 1v-1h-1zm1 1l1 1v-1h-1zm6 13c2-6 0-7-4-12-2 6-1 8 4 12zm2-3l1 1v-1h-1zm1 1l1 1v-1h-1zm1 1l1 1v-1h-1zm1 1l1 1v-1h-1zm1 1l1 1v-1h-1zm1 1l1 1v-1h-1zm3 11l-4 7c-3-3-3-4-7-3 2 3 2 3 5 4l1 3c6 1 7 3 10 7 2 2 4 4 7 4 3-1 3-6 2-8-2-5-7-8-8-11-4-5 1-6-7-13-3 6 2 7 1 10zm-20-4l1 1v-1h-1zm1 1l1 1v-1h-1zm24 1l1 1v-1h-1zm1 1l1 1v-1h-1zm1 1l1 1v-1h-1zm20 0l1 1v-1h-1zm-19 1l1 1v-1h-1zm1 1l1 1v-1h-1zm16 3l1 1v-1h-1zm-11 3l1 1v-1h-1zm1 1l1 1v-1h-1zm1 2l1 1v-1h-1z"/>
    <path class="draw" d="M963 482c4-4 1-8 7-12 12-8 36-14 51-15v6l-4-2-19 4 26 1v2h-18c-8 0-19 5-26 9-9 6-7 12-11 17-4 4-14 7-20 8 2-6 6-5 11-8 3-1 5-3 7-6-4 3-16 6-21 5v-2c5-2 14-4 17-7zm27-17l1 1v-1h-1zm-20 12l8-6c-4 1-6 2-8 6zm-1 7l1-7c-2 3-2 4-1 7z"/>
    <path class="draw" d="M1029 468l8 13 4 23h-4l-1-6c0 4 0 5-3 7 0-5-2-16-4-20-3-6-5-5-7-15l7-2zm-4 2h1v-1l-1 1zm2 5l1 1v-1h-1zm1 1l1 1v-1h-1zm1 1l1 1v-1h-1zm1 1l1 1v-1h-1zm2 3l1 1v-1h-1zm3 10v-5 5zm1 6v-6 6z"/>
    <path class="draw" d="M1009 403l-2-26-1-18-5-14a336 336 0 01-8-66l-5-12c-2-7-7-28-7-35 0-3 4-14 9-12 4 2 0 9-1 12-1 5 4 22 5 27l6 16v12l2 23 6 31 5 14v10l3 36 6 37c1 5 3 10-1 13l-1-3-3 5-8-50zm-22-178l1 1v-1h-1zm-1 2l1 1v-1h-1zm-1 8l1-7c-2 3-2 4-1 7zm8 34l1 1v-1h-1zm1 3l1 1v-1h-1zm1 2l1 1v-1h-1zm1 2l1 1v-1h-1zm1 18v0zm8 52l1 1v-1h-1zm2 5l1 1v-1h-1zm3 13v-6 6zm1 14v0zm1 13v-6 6zm1 12v-5 5z"/>
    <path class="draw" d="M1069 415c-2-3-4-21-5-25l-13-81-11-67-5-28 1-21-4-17-2-14c-1-3-2-9 0-12 1-2 5-4 8-5l22-7 30-10 17-6c5-3 3-9 8-14 4-3 22-8 28-9l-1 5c-2 4-16 5-20 8-7 5-4 12-11 16l-20 7-35 11c-5 2-18 5-20 10-2 9 6 30 6 37l-1 18 8 46 14 88 8 47c1 8 4 17 2 25l-4-2zm42-292l1 1v-1h-1zm-72 97l1 1v-1h-1zm1 6l1 1v-1h-1zm1 6l1 1v-1h-1zm1 6l1 1v-1h-1zm1 6l1 1v-1h-1zm4 23l1 1v-1h-1zm1 6l1 1v-1h-1zm1 6l1 1v-1h-1zm1 6l1 1v-1h-1zm1 6l1 1v-1h-1zm1 6l1 1v-1h-1zm1 6l1 1v-1h-1zm1 6l1 1v-1h-1zm1 6l1 1v-1h-1zm2 13l1 1v-1h-1zm1 6l1 1v-1h-1zm3 17l1 1v-1h-1zm1 6l1 1v-1h-1zm1 6l1 1v-1h-1zm1 6l1 1v-1h-1zm4 28l1 1v-1h-1z"/>
    <path class="draw" d="M974 0l1 3 4-3-3 8c-4 6-20 16-27 20l-33 20-19 11c-7 5-9 10-13 14-6 5-13 5-18 13-2 3-5 9-4 13 2 4 6 7 6 11s-5 9-8 5c-2-2-2-5-3-7-2-5-5-6-3-12 0-4 4-16 6-19l12-7c2-1 6-2 7-4l1-5h4l1 6 4-7h-4c2-5 7-6 11-8l14-8 40-24c11-7 15-8 22-20h2zm-3 8l1 1V8h-1zm-1 1l1 1V9h-1zm-80 49l1 1v-1h-1zm-1 1l1 1v-1h-1zm-6 8l1 1v-1h-1zm-3 3l1 1v-1h-1zm-2 1l1 1v-1h-1zm-9 5l1 1v-1h-1zm-3 2l1 1v-1h-1zm-4 2v6l4-7-4 1zm-2 7l1 1v-1h-1zm-2 5l1 1v-1h-1zm0 8v-6 6zm0 1l1 1v-1h-1zm1 1l1 1v-1h-1zm1 2l1 1v-1h-1zm1 1l1 1v-1h-1zm5 8l-3-6c0 3 1 4 3 6z"/>
    <path class="draw" d="M395 904l13-17 9-8c3-4 4-10 7-13 2-3 6-4 9-7 5-5 3-9 13-16 6-5 12-6 25-17 9-8 10-11 16-18l18-15c6-5 5-9 7-16 2-10 5-17 15-21l1 3h5l-11 14-7 21-20 17-15 18-20 15-12 7-9 14-10 7-7 13-8 7-15 19-8 14-8-1c2-9 7-13 12-20zm132-145l1 1v-1h-1zm-1 1l1 1v-1h-1zm-7 7l1 1v-1h-1zm-1 2l1 1v-1h-1zm-7 23l1 1v-1h-1zm-1 1l1 1v-1h-1zm-10 8l1 1v-1h-1zm-5 4l1 1v-1h-1zm-8 8l1 1v-1h-1zm-1 1l1 1v-1h-1zm-2 3l1 1v-1h-1zm-1 1l1 1v-1h-1zm-2 3l1 1v-1h-1zm-1 1l1 1v-1h-1zm-1 1l1 1v-1h-1zm-1 1l1 1v-1h-1zm-1 1l1 1v-1h-1zm-1 1l1 1v-1h-1zm-5 4l1 1v-1h-1zm-1 1l1 1v-1h-1zm-3 2l1 1v-1h-1zm-1 1l1 1v-1h-1zm-4 3l1 1v-1h-1zm-3 2l1 1v-1h-1zm-2 1l1 1v-1h-1zm-6 3l1 1v-1h-1zm-2 1l1 1v-1h-1zm-4 3l1 1v-1h-1zm-2 2l1 1v-1h-1zm-2 3l1 1v-1h-1zm-1 2l1 1v-1h-1zm-3 6l1 1v-1h-1zm-3 3l1 1v-1h-1zm-1 1l1 1v-1h-1zm-2 1l1 1v-1h-1zm-2 1l1 1v-1h-1zm-5 5l1 1v-1h-1zm-2 5l1 1v-1h-1zm-1 2l1 1v-1h-1zm-5 6l1 1v-1h-1zm-3 2l1 1v-1h-1zm-1 1l1 1v-1h-1zm-5 6l1 1v-1h-1zm-3 4l1 1v-1h-1zm-2 3l1 1v-1h-1zm-3 4l1 1v-1h-1zm-3 4l1 1v-1h-1zm-3 4l1 1v-1h-1zm-3 4l1 1v-1h-1zm-1 2l1 1v-1h-1z"/>
    <path class="draw" d="M862 120l-11 30 3 17 6 30 2 14v6l-5 3-8-49-4-22 11-32 6 3zm-12 45l1 1v-1h-1zm1 5l1 1v-1h-1zm2 11l1 1v-1h-1zm1 5l1 1v-1h-1zm1 6l1 1v-1h-1zm1 5l1 1v-1h-1zm1 6l1 1v-1h-1zm1 5l1 1v-1h-1zm1 6l1 1v-1h-1z"/>
    <path class="draw" d="M1252 127c10-3 37-12 46-12h10v3l-6 1h7v3l-11-1-34 10-49 15-41 13-3-6 81-26zm38-8l1 1v-1h-1zm-7 2l1 1v-1h-1zm-10 3l1 1v-1h-1zm-30 9l1 1v-1h-1zm-10 3l1 1v-1h-1zm-16 5l1 1v-1h-1zm-3 1l1 1v-1h-1zm-3 1l1 1v-1h-1zm-3 1l1 1v-1h-1zm-16 5l1 1v-1h-1zm-3 1l1 1v-1h-1zm-3 1l1 1v-1h-1zm-3 1l1 1v-1h-1zm-3 1l1 1v-1h-1zm-3 1l1 1v-1h-1z"/>
    <path class="draw" d="M1622 127l-2 3 2 3c-7 4-15 7-23 8l-8 2-35 13c-6 3-7 7-12 11s-20 9-27 10l1-3-4 1 2 2-22 6 3 16-5 4-6-27-5-10-5-13c-2-6-6-15-3-20l-4-3c3 0 5 0 7 2l6 16 8 21 33-11 30-8c10-4 27-12 36-13l3 1h-2v-1l32-10zm-149 8l1 1v-1h-1zm1 2l1 1v-1h-1zm111 3l1 1v-1h-1zm-4 2l1 1v-1h-1zm-9 4l1 1v-1h-1zm-13 5l1 1v-1h-1zm-3 1l1 1v-1h-1zm-7 3l1 1v-1h-1zm-2 1l1 1v-1h-1zm-10 2l9 2 1-3-10 1zm-27 11c-5 2-12 3-16 7 8-1 24-6 32-9 5-2 11-3 15-7-11 1-21 6-31 9zm33-7l1 1v-1h-1zm-1 1l1 1v-1h-1zm-1 1l1 1v-1h-1zm-2 1l1 1v-1h-1zm-2 1l1 1v-1h-1zm-3 1l1 1v-1h-1zm-2 1l1 1v-1h-1zm-3 1l1 1v-1h-1zm-3 1l1 1v-1h-1zm-38 1l1 1v-1h-1zm5 0l1 1v-1h-1zm-4 1l1 4 2-4h-3zm32 0l1 1v-1h-1zm-28 4l1 1v-1h-1zm-3 3l3 2-3-2zm5 0l1 1v-1h-1zm-4 6l1 1v-1h-1zm2 8l1 1v-1h-1z"/>
    <path class="draw" d="M1504 218l10 30 7 19 5 10 4 15 6 18 8 26v6c0 8 4 17 6 24-7 2-7-1-10-9-5-16 1-13-5-29l-11-32-3-14-6-12-8-21-15-45 6-3c3 4 4 12 6 17zm21 68l1 1v-1h-1zm1 5l1 1v-1h-1zm15 46l1 1v-1h-1zm0 12l1 1v-1h-1z"/>
    <path class="draw" d="M1587 0c0 4-1 11-4 13l-6 6c-2 4 0 9-2 15l-8 21c-1 3 4 17 6 21l12 36 6 22-6 1-18-56-8-24c0-5 5-10 7-15 4-11 5-14 3-26l9-5 4-9h5zm-4 3l1 1V3h-1z"/>
    <path class="draw" d="M1433 0l-1 6c-2 4-15 7-17 10-2 2-1 5 0 8 0 4-1 6-4 9-5 4-15 8-21 10l-9 2-10 7c-6 3-13 5-15 12l-1 9-14 5 1 11-4 7 8 26-6 2c-2-6-9-26-9-31l4-8v-9c1-4 10-6 14-7v-9c2-8 11-10 17-13l9-6 18-7 16-7c-1-3-3-11-2-14s4-4 7-5c6-3 9-3 13-8h6zm-24 15l1 1v-1h-1zm-54 42l1 1v-1h-1zm-17 19l1 1v-1h-1zm1 10l1 1v-1h-1z"/>
    <path class="draw" d="M1433 0l-1 6c-2 4-15 7-17 10-2 2-1 5 0 8 0 4-1 6-4 9-5 4-15 8-21 10l-9 2-10 7c-6 3-13 5-15 12l-1 9-14 5 1 11-4 7 8 26-6 2c-2-6-9-26-9-31l4-8v-9c1-4 10-6 14-7v-9c2-8 11-10 17-13l9-6 18-7 16-7c-1-3-3-11-2-14s4-4 7-5c6-3 9-3 13-8h6zm-24 15l1 1v-1h-1zm-54 42l1 1v-1h-1zm-17 19l1 1v-1h-1zm1 10l1 1v-1h-1z"/>
    <path class="draw" d="M1142 14l5-6 17-8h6c-5 10-10 8-17 13-5 4-6 8-16 14-2-7 0-8 5-13z"/>
    <path class="draw" d="M845 2c4-4 9 6 11 9l22 32c2 4 8 9 3 13l-2 5-26-40c-4-6-11-14-12-21l4 2zm0 0l1 1V2h-1zm1 2l1 1V4h-1zm1 1l1 1V5h-1zm1 2l1 1V7h-1zm1 1l1 1V8h-1zm1 2l1 1v-1h-1zm2 3l1 1v-1h-1zm1 1l1 1v-1h-1zm1 2l1 1v-1h-1zm1 1l1 1v-1h-1zm1 2l1 1v-1h-1zm1 1l1 1v-1h-1zm1 2l1 1v-1h-1zm1 1l1 1v-1h-1zm1 2l1 1v-1h-1zm2 3l1 1v-1h-1zm2 3l1 1v-1h-1zm1 1l1 1v-1h-1zm1 2l1 1v-1h-1zm1 1l1 1v-1h-1zm2 3l1 1v-1h-1zm2 3l1 1v-1h-1zm2 3l1 1v-1h-1zm1 2l1 1v-1h-1zm1 1l1 1v-1h-1zm1 2l1 1v-1h-1z"/>
    <path class="draw" d="M583 0h13c6 2 8 7 11 8h8c5-1 7 1 11 4l10 7 9 8 17 9c8 6 7 10 9 18 0 3 1 9 4 10s15-3 18-4l42-11h7c4 1 3 5 9 3l21-12c3-1 8-4 11-4 7 1 7 10 16 13 14 5 15 1 28 1h11l8 1c3 2 9 12 11 16 1 2 3 4 2 6 0 2-2 4-4 5-2-4-11-19-14-21l-9-1-16 2c-13 1-27-2-33-15l-33 17c-7 1-8-4-13-4l-11 3-21 5-24 7c-3 0-9 2-12 0-3-1-3-5-3-8-1-6-2-15-6-19l-19-10c-7-4-18-17-25-18h-8l-7-1c-3-2-5-7-11-9s-22-3-29-4V0h22zm2 1l1 1V1h-1zm16 9l1 1v-1h-1zm12 1l1 1v-1h-1zm-8 2l1 1v-1h-1zm40 19l1 1v-1h-1zm2 1l1 1v-1h-1zm2 1l1 1v-1h-1zm2 1l1 1v-1h-1zm3 1l1 1v-1h-1zm2 1l1 1v-1h-1zm2 2l5 3v-4l-5 1zm121 1l1 1v-1h-1zm-2 1l1 1v-1h-1zm-112 4l1 1v-1h-1zm103 1l1 1v-1h-1zm-102 3l1 1v-1h-1zm97 0l1 1v-1h-1zm-2 1l1 1v-1h-1zm-26 2l1 1v-1h-1zm6 0l1 1v-1h-1zm57 0l1 1v-1h-1zm-67 1l1 1v-1h-1zm91 1l5-1-5 1zm21-1l1 1v-1h-1zm-115 1l1 1v-1h-1zm-4 1l1 1v-1h-1zm20 0l1 1v-1h-1zm7 0l1 1v-1h-1zm-5 1l1 1v-1h-1zm-29 1l1 1v-1h-1zm132 4l1 1v-1h-1zm-180 5l1 1v-1h-1zm14 0l1 1v-1h-1zm-4 1l1 1v-1h-1zm-9 2l5-1-5 1zm187 5l1 1v-1h-1z"/>
    <path class="draw" d="M618 41l7 41c0 4 4 21 2 24-1 3-4 4-7 4l-15 5c-3 1-6 2-6 6l2 17 6 34 10 60v18c1 4 4 6 5 11l5 31-6 2-5-30-6-12 2-15-5-26-10-59-3-22 1-14-1 7c-1-3-2-6-1-9 1-2 5-3 8-4l21-6-6-42-7-43 5-1c2 4 3 18 4 23zm-4-5l1 1v-1h-1zm1 6l1 1v-1h-1zm1 6l1 1v-1h-1zm1 7l1 1v-1h-1zm1 6l1 1v-1h-1zm1 6l1 1v-1h-1zm1 7l1 1v-1h-1zm1 6l1 1v-1h-1zm-24 53l1 1v-1h-1zm1 6l1 1v-1h-1zm9 54l1 1v-1h-1zm1 6l1 1v-1h-1zm1 6l1 1v-1h-1zm1 6l1 1v-1h-1zm1 6l1 1v-1h-1zm1 6l1 1v-1h-1zm1 6l1 1v-1h-1zm0 20l1 1v-1h-1zm8 27l1 1v-1h-1zm1 6l1 1v-1h-1z"/>
    <path class="draw" d="M692 14c7-8 12-18 24-13-12 8-22 26-34 33-6 3-14 6-18-1 13-3 19-9 28-19z"/>
    <path class="draw" d="M548 140l-62 18c-5 2-20 6-24 9-2 1-5 6-9 4-3-2 2-7 4-9 4-4 18-7 24-9l77-22 33-10v7l-43 12zm41-16l1 1v-1h-1z"/>
    <path class="draw" d="M470 188l12 7 8 6 15 8 14 9 60 50c4 3 16 14 20 15 9 5 18 2 21 12-6 0-21-3-26-6l-12-9-22-19c-16-14-37-32-55-43l-16-9-10-7c-11-7-22-14-31-24h5l-1-4c7 4 12 9 18 14zm-15-8l1 1v-1h-1zm40 28l1 1v-1h-1zm2 1l1 1v-1h-1zm29 19l1 1v-1h-1zm5 4l1 1v-1h-1zm5 4l1 1v-1h-1zm63 51l1 1v-1h-1zm8 2l1 1v-1h-1zm8 4l1 1v-1h-1z"/>
    <path class="draw" d="M301 57l28 23c8 6 12 6 23 13l50 40 31 24c6 5 14 10 18 17l-4-1v5l-16-13-33-26c-13-10-45-38-58-45l-12-5-28-23-7-7c-7-6-8-6-8-16l16 14zm34 31l1 1v-1h-1z"/>
    <path class="draw" d="M443 189l-17 20-10 9-22 4-44 7c-9 1-7 1-15 4-2 1-6 2-8 1s-2-3-2-5l14-4 45-8 29-5 10-10 20-24c7 3 4 6 0 11zm-35 27l1 1v-1h-1zm-13 2l1 1v-1h-1zm-13 2l1 1v-1h-1zm-13 2l1 1v-1h-1zm-6 1l1 1v-1h-1z"/>
    <path class="draw" d="M272 2l3-2 4 27 2 9v9l6 23 7 15 2 14 8 44 14 74 4 18c-3-1-3-1-4-4l-4 2-7-39-11-54-8-51-8-17-3-25-4-13-5-32 4 2zm0 5l1 1V7h-1zm1 6l1 1v-1h-1zm2 12l1 1v-1h-1zm1 5l1 1v-1h-1zm1 4l1 1v-1h-1zm5 30l1 1v-1h-1zm1 4l1 1v-1h-1zm7 16l1 1v-1h-1zm6 34l1 1v-1h-1zm1 6l1 1v-1h-1zm1 6l1 1v-1h-1zm1 6l1 1v-1h-1zm1 5l1 1v-1h-1zm1 5l1 1v-1h-1zm1 5l1 1v-1h-1zm3 14l1 1v-1h-1zm1 4l1 1v-1h-1zm2 11l1 1v-1h-1zm1 5l1 1v-1h-1zm3 16l1 1v-1h-1zm4 22l1 1v-1h-1z"/>
    <path class="draw" d="M173 1c3 2 5 15 5 19l11 65c7 47 15 94 25 141l5 21 4 11 2 11 4 8 4 19c1 8-2 9-2 17l7 46 2 9c2 3 8 7 11 9l24 17c3 3 13 9 15 12v5c-7-1-12-7-18-11l-30-21-50-37c-6-4-21-14-25-20-5-7-5-14-7-22l-4-24 3 1-1-9v7l-3-2c-1-3 1-11 3-13l12-3 29-6c8-2 10-3 14 3l-20 5-32 6 5 31c1 6 2 15 5 20 4 6 16 14 22 19l39 28-7-47c-1-12 2-14 2-19-1-10-4-15-7-23l-4-15c-2-5 2-5-1-12-2 3-3 0-3-2l-3-12-10-50-18-109-12-74 4 1zm-1 2l1 1V3h-1zm1 6l1 1V9h-1zm1 6l1 1v-1h-1zm1 6l1 1v-1h-1zm1 6l1 1v-1h-1zm1 6l1 1v-1h-1zm3 19l1 1v-1h-1zm1 6l1 1v-1h-1zm3 19l1 1v-1h-1zm1 6l1 1v-1h-1zm1 6l1 1v-1h-1zm2 13l1 1v-1h-1zm1 6l1 1v-1h-1zm1 6l1 1v-1h-1zm2 13l1 1v-1h-1zm1 6l1 1v-1h-1zm2 13l1 1v-1h-1zm17 87l1 1v-1h-1zm1 5l1 1v-1h-1zm-11 15l1 1v-1h-1zm-5 1l1 1v-1h-1zm23 8l1 1v-1h-1zm1 5l1 1v-1h-1zm8 28l1 1v-1h-1zm0 6l1 1v-1h-1zm0 23l1 1v-1h-1zm1 6l1 1v-1h-1zm2 13l1 1v-1h-1zm1 25l3 1v-5l-3 4zm54 39l1 1v-1h-1zm1 1l1 1v-1h-1z"/>
    <path class="draw" d="M244 242l10 1 11-6 46-9-2 4 2 2-42 9c-6 2-9 6-14 7l-11-2c-11 0-18 9-23-2l23-4z"/>
    <path class="draw" d="M43 288l10 3c9 1 25-3 34-5l65-13v7l-69 13a73 73 0 01-50-1c-10-3-13-5-22-10-3-1-8-4-9-6-2-2-2-5-2-7 20 9 18 12 43 19zm107-12l1 1v-1h-1zm-5 1l1 1v-1h-1zm-75 15l1 1v-1h-1z"/>
    <path class="draw" d="M292 416c-2 9 3 28 4 38l2 11-12 20-26 44-5-2c2-6 6-12 9-17l18-32 9-14-1-12-4-23c-1-7-3-10 1-16l5 3zm-3 16l1 1v-1h-1zm1 6l1 1v-1h-1zm2 13l1 1v-1h-1zm1 6l1 1v-1h-1z"/>
    <path class="draw" d="M313 422l30 22c5 4 5 8 8 10l24 3 46 5c7 1 20 1 25 5l-5 1c6 0 8 0 13 4l-71-8-21-2-14-2-8-10-15-11-28-21-3-5c8-2 13 5 19 9zm61 39l5-1-5 1zm19 2l5-1-5 1zm38 4l6-1-6 1z"/>
    <path class="draw" d="M1184 885v-14l-1-13 1-13c4-6 15-4 26-8l14-7 30-11 22-5c4-1 4-4 9-6l36-7 17-5 42-8h54l12 1h14l15-1h40l21-2 17-5 12-1c7-2 4-3 14-3l28-1c5-1 9-4 14-6l1 5c-3 11-18 8-22 10-3 2 0 5-5 13 4 3 3 9 2 14v18h-2l-1-24c0 6 2 21-2 26l5-1v42l-1 17v42l1 23 3 9c0 4 1 8-3 11l-1-3-2 3-3-29v-55c0-9-4-22 2-29-4-3-3-6-2-10v-16l1-37c0-9-6-14-15-14h-13c-12 0-18 8-33 8h-15l-17 2-12-1h-81l-15-1c-13 0-27 4-40 7l-10 3-1-3c-2 5-8 6-13 7l-36 7c-7 2-5 6-9 7l-17 2c-15 3-29 9-43 16-4 2-19 7-21 10l-3 12c-2 9-1 30-1 40h-3l-1-31-1 15-1-3c0 8-1 11 2 19l-4 1-1-22-1 21-2 2-1-18zm432-109l1 1v-1h-1zm-1 1l1 1v-1h-1zm-2 1l1 1v-1h-1zm-27 2c-5 0-9-1-14 2 9 0 29 1 36-2h-22zm-27 3l8-1-8 1zm-5 0l1 1v-1h-1zm35 1l1 1v-1h-1zm2 3l4 4v-6l-4 2zm-54 2l1 1v-1h-1zm-158 2l12-1-12 1zm127 0l12-1-12 1zm-132 0l1 1v-1h-1zm71 0l-25 1h55l25-1h-55zm-75 1l1 1v-1h-1zm-5 1l1 1v-1h-1zm-4 1l1 1v-1h-1zm-9 2l1 1v-1h-1zm-4 1l1 1v-1h-1zm-4 1l1 1v-1h-1zm-27 7l1 1v-1h-1zm-5 1l1 1v-1h-1zm-6 1l1 1v-1h-1zm-6 1l1 1v-1h-1zm-11 2l1 1v-1h-1zm-19 9l9-1-9 1zm-67 23l1 1v-1h-1zm-6 1l1 4 3-4h-4zm-10 23l1 11v-30c-4 6-1 13-1 19zm407-4v-15c-2 4-2 11 0 15zm-402-14c-1 4-2 9 0 13l2-13h-2zm4 3l1 1v-1h-1zm-2 10l1 1v-1h-1zm399 39v22l1 12v-48l-1 14z"/>
    <path class="draw" d="M1230 894l17-7c8-2 22-2 31-2 15 0 16-6 28-8 8-2 38-3 47-3v2l-4 1h4v3h-20c-7 0-7 1-13 2l-13 1c-9 3-11 8-26 8-12 0-21-1-33 3l-15 6-22 6c-2 1-8 2-10 1s-2-3-2-5l31-8zm96-16l10-1-10 1zm-6 0l1 1v-1h-1zm-58 11l16-1-16 1zm-15 1l1 1v-1h-1zm-31 11l1 1v-1h-1z"/>
    <path class="draw" d="M1196 904l1 6c-3 1-8 4-8 7s3 4 5 7 3 9 3 12l-5-4c1 6 3 7 7 10l-3-5 8 4 9 13-3 14c5-1 17-1 22 3l2 4-19-1-8 1v-5l5-1h-4l1-15c-1 4-1 6-5 8 3 4 2 8 1 13-13 0-9 0-22-2-5-1-9 0-8-7h-6c0-9 2-8 3-14 0-5-1-10 1-14 1-5 6-9 4-13-2-3-6-1-8 0-10 4-9 6-20 3-5-1-7-2-7-7l-8-4c12 0 18 5 22 4 3 0 6-2 9-4 5-2 9-2 15-1 1-5 2-9 8-10l-1 4 7-6h2zm-11 8l1 1v-1h-1zm-1 2l1 1v-1h-1zm-4 6c3 3 3 3 7 3l-3-6-4 3zm-13 0l1 1v-1h-1zm-2 1l1 1v-1h-1zm-21 1l1 1v-1h-1zm19 0l1 1v-1h-1zm-2 1l1 1v-1h-1zm27 0l1 1v-1h-1zm-29 1l1 1v-1h-1zm30 0l1 1v-1h-1zm-5 12c4-3 4-4 3-9l-3 9zm-3-5l1 1v-1h-1zm-3 5l1 1v-1h-1zm5 0l1 1v-1h-1zm-7 6l7-1-5-3-2 4zm-1 14l-2 7 24-3h-21v-18l-1 14zm16-13l-12 2v12h26c-2-5-9-14-14-14zm8-1l1 1v-1h-1zm2 3l1 1v-1h-1zm1 1l1 1v-1h-1zm1 1l1 1v-1h-1zm-3 14l1 1v-1h-1zm1 5c-4-3-19-2-24 0l26 3c0-1 0-2-2-3zm21 5l1 1v-1h-1z"/>
    <path class="draw" d="M1333 920c-10 6-18 10-30 10h-41l-15 1c-17 0-13 3-26 3h-8c-7 2-10 7-14-2 10-6 10-5 21-5l27-3h20l15-1h17c18 0 26-8 41-15 5 8-1 9-7 12zm4-7l1 1v-1h-1zm-6 3l1 1v-1h-1zm-5 3l1 1v-1h-1zm-2 1l1 1v-1h-1zm-2 1l1 1v-1h-1zm-2 1l1 1v-1h-1zm-5 2l1 1v-1h-1zm-35 3c6 0 25 1 30-1-6 0-25-1-30 1zm-40 1l21-1-21 1zm-7 0l1 1v-1h-1zm-15 3l10-1-10 1zm-9 0l1 1v-1h-1zm-5 2l1 1v-1h-1zm-2 1l1 1v-1h-1z"/>
    <path class="draw" d="M1344 806l2 21 4 12 2 9 7 18 7-5 8-8 16 4 24 3 22-3 13-2 30-12 19-2 2 3-1-3c12-5 12-2 22-3 6-1 9-4 16-4l11 1h10c10 0 20-4 30-6 0 8-2 6-15 10-12 4-21 0-33 1-8 0-11 4-21 4-7 0-16 0-20 6-3 5-2 21 5 22 3 1 10-3 13-4l13-1c8 0 9 2 14 2l19-2c10-1 9-5 25-8l-2 4 2 2-8 3-9 4-27 3-18-2c-5 0-9 3-13 4-2 1-7 2-9 4-3 2-4 12-4 16v73h20l14 1 19 1 3 3h-61v-34l-1-16v-30l2-14c0-6-5-6-5-16 0-4 3-16-2-17-3-1-10 2-13 3l-27 11h-10l-18 4-19-1-17-3-8-2-6 6-7 6c-3 5-2 15-2 21l-2 16c-2 2-5 2-6 4-2 3-2 6-2 9v37c0 5 1 12-2 16v-22l-1-16v-27l-4 1-1-4c5-4 12-9 13-16l-1-14 3 2 1-9-2 6c-5-3-7-11-9-16l-5-17-4-11-2-26h6zm-2 12v0zm244 14l1 1v-1h-1zm-5 1l1 1v-1h-1zm-35 5l7-1-7 1zm18 0l1 1v-1h-1zm-56 4l8-1-8 1zm-11 2l1 1v-1h-1zm-149 3l1 1v-1h-1zm147 22v-18c-2 4-2 14 0 18zm-59-9l9-1-9 1zm-13 2l1 1v-1h-1zm-4 1l1 1v-1h-1zm162 0l1 1v-1h-1zm-59 7l1 1v-1h-1zm22 2l1 1v-1h-1zm-38 3l1 1v-1h-1zm-9 9l1 8 1-8h-2zm-137 10v0zm-3 6l1 1v-1h-1zm-6 8l8-2-2-4-6 6zm146 12v29l1 17v-61l-1 15zm-147-12l1 1v-1h-1zm-1 1l1 1v-1h-1zm160 64h-11l34 1 15-1h-38z"/>
    <path class="draw" d="M1215 960c2-3 13-7 17-7 10 0 25 8 33 13 5 3 8 4 12 9l-13-1-29-13-22 5c0-2 0-4 2-6zm10-2l1 1v-1h-1zm16 0l1 1v-1h-1zm-18 1l1 1v-1h-1zm-2 1l1 1v-1h-1zm25 0l1 1v-1h-1zm-28 1l1 1v-1h-1zm30 0l1 1v-1h-1zm2 1l1 1v-1h-1zm2 1l1 1v-1h-1zm2 1l1 1v-1h-1zm2 1l1 1v-1h-1zm7 4l1 1v-1h-1zm5 3l1 1v-1h-1zm1 1l1 1v-1h-1z"/>
    <path class="draw" d="M1395 891l11-1 11-2c10-3 15-5 25-5h29l22-1-1 6h-29l-15 1c-19 0-18 3-35 6l-13 1-19 7c-7 2-8 1-18 5v-8c21-4 18-6 32-9zm62-5l27-1-27 1zm-43 5l1 1v-1h-1zm-6 1l1 1v-1h-1zm-35 9l1 1v-1h-1zm-5 1l1 1v-1h-1z"/>
    <path class="draw" d="M1622 796l-10 1c4 0 7 0 10 3l-21-1-3-5c7 0 18-1 24 2zm-123 30l-1 12v-40l1 28zm123 0c-2 3-4 3-8 4l8 1-22 3v-3l7-1h-7v-2l22-2zm0 33v2l-16 1 16 1-22 2v-6h22z"/>
    <path class="draw" d="M1507 186l5-5 8-1c-4 8-11 16-18 21-4-8-1-9 5-15zm7-4l1 1v-1h-1zm-3 4l1 1v-1h-1zm-1 1l1 1v-1h-1z"/>
    <path class="draw" d="M1204 398l6 24 3 11-6 1-4-9-6-26 4 2 3-3zm3 30l1 1v-1h-1zm1 2l1 1v-1h-1zm1 3l1 1v-1h-1z"/>
    <path class="draw" d="M832 876l1 6c1 7-1 17-5 23l-1-3-4 1 4-15-1-15c2 1 5 1 6 3zm-3 1l1 1v-1h-1z"/>
    <path class="draw" d="M564 786v-4c4 4 4 11 4 17l1 18v9l11 38 4 23-1 10 2 9-7 1-1-15c0-15-7-37-12-52l-3-12v-14l-2-34 4 6zm1 14v-6 6zm1 13v-7 7zm0 13v-6 6zm0 5l1 1v-1h-1zm2 7l1 1v-1h-1zm2 7l1 1v-1h-1zm1 3l1 1v-1h-1zm2 7l1 1v-1h-1zm2 7l1 1v-1h-1zm1 1l1 4 2-4h-3zm2 12l1 1v-1h-1z"/>
    <path class="draw" d="M561 719c2-5 3-11 7-16 3-5 13-14 14-19 2-4 1-10-1-14-3-4-8-6-6-10 3-6 9 3 12 4 2 1 5-2 7-3l6 4-2 5c-1 3 7 12 9 14l10 11c9 10 12 11 16 25-11 2-7-4-13-12l-30-31-1 10c-1 4-11 15-15 20l-7 15c-3 7-6 11-7 19l-4-3-3 3c0-9 4-14 8-22zm34-55l1 1v-1h-1zm-3 3l1 1v-1h-1zm-7 1l1 1v-1h-1zm1 1l1 17 1-13 6 3-2-8-6 1zm8 7l1 1v-1h-1zm1 1l1 1v-1h-1zm1 1l1 1v-1h-1zm1 1l1 1v-1h-1zm1 1l1 1v-1h-1zm1 1l1 1v-1h-1zm1 1l1 1v-1h-1zm24 25l1 1v-1h-1zm-57 4l1 1v-1h-1zm59 1l1 1v-1h-1zm1 3l1 1v-1h-1zm-62 1l1 1v-1h-1zm63 1l1 1v-1h-1zm-65 4l1 1v-1h-1zm-1 2l1 1v-1h-1zm-1 2l1 1v-1h-1zm-4 9l1 1v-1h-1z"/>
    <path class="draw" d="M504 702l18-12 23-13c8-7 20-22 28-26l1 1-4 6c2 2 0 4-1 6l-13 12c-11 11-19 13-32 21l-11 8-20 11-3-7 14-7zm65-44l1 1v-1h-1zm-1 1l1 1v-1h-1zm-25 22l1 1v-1h-1zm-3 2l1 1v-1h-1zm-7 4l1 1v-1h-1zm-12 7l1 1v-1h-1zm-9 6l1 1v-1h-1zm-3 2l1 1v-1h-1zm-7 4l1 1v-1h-1z"/>
    <path class="draw" d="M421 638c-6-4-2-8 3-10v5c4 0 17 1 20 3 2 2 3 6 4 9 3 9 6 12 6 22 0 7-1 13 4 19 4 5 9 4 14 7s5 7 8 9 6 2 7 4c2 1 3 5 4 7l8 14c3 5 19 13 25 17l9 4 9-3 14-3-4 5c4 1 4 1 6 4l2-5-3-4h5l2 8c-3 3-2 5-1 9l3 18-4-4 1 7-13-11-18-12h6v-6c-7 2-7 0-14-1 3 2 4 2 5 6-9-2-10-6-18-11-6-3-13-5-17-11l5-1-5-6-1 6c-4-8-10-13-10-22-12 0-9-5-15-10-5-4-12-3-16-8-5-7-4-17-4-25 0-12-6-15-7-27l-20-3zm8-2l1 1v-1h-1zm22 31v-7 7zm0 15l1 1v-1h-1zm5 9l1 1v-1h-1zm14 5l1 1v-1h-1zm1 1l1 1v-1h-1zm2 3l1 1v-1h-1zm1 2l1 1v-1h-1zm2 3l1 1v-1h-1zm8 3l1 1v-1h-1zm1 1l1 1v-1h-1zm4 9l-2-8c-1 4 0 5 2 8zm1 3l1 1v-1h-1zm1 1l1 1v-1h-1zm8 12l1 1v-1h-1zm2 1l1 1v-1h-1zm2 1l1 1v-1h-1zm3 2l1 1v-1h-1zm2 1l1 1v-1h-1zm5 3l1 1v-1h-1zm2 1l1 1v-1h-1zm3 2l1 1v-1h-1zm2 1l1 1v-1h-1zm25 2l5-1-5 1zm-4 1l1 1v-1h-1zm-2 1l1 1v-1h-1zm2 4c4 4 11 9 16 11l-3-15-13 4zm17 1l1 1v-1h-1zm1 5l1 1v-1h-1zm3 13l-1-8c-1 3-1 5 1 8z"/>
    <path class="draw" d="M241 773c3-2 16 0 20 0h32l17 1h44c8 0 10 3 14 2l18-15c5-3 16-6 22-7 11-4 20-7 31-7 16 0 18-3 32-10 5-2 15-6 21-5l-2 3 4 3-26 9-12 5-25 3-28 8c-7 2-13 4-19 9-4 3-9 9-14 10-5 2-12-2-24-2-8 0-26 1-32-3l9-1-35 1 19 1c-6 2-23 1-31 1l-16-1c-6 0-17 1-22-1l3-4zm228-31l1 1v-1h-1zm-5 2l1 1v-1h-1zm-2 1l1 1v-1h-1zm-2 1l1 1v-1h-1zm-5 2l1 1v-1h-1zm-20 3l13-1-13 1zm-7 1l6-1-6 1zm-10 2l1 1v-1h-1zm-7 2l1 1v-1h-1zm-10 3l1 1v-1h-1zm-9 3l1 1v-1h-1zm-3 1l1 1v-1h-1zm-146 13l26-1-26 1zm107 2l7-1-7 1z"/>
    <path class="draw" d="M699 828l44-10c3-1 9-3 10 1v3c-1 2-7 3-10 3l-26 6-54 13-45 11-24 7c-2 1-9 3-11 2s-3-3-3-5l30-9 43-10 17-4c3-1 6-2 8 1l6-1c1-6 10-6 15-8zm48-8l1 1v-1h-1zm-4 1l1 1v-1h-1zm-4 1l1 1v-1h-1zm-13 3l1 1v-1h-1zm-4 1l1 1v-1h-1zm-4 1l1 1v-1h-1zm-4 1l1 1v-1h-1zm-9 2l1 1v-1h-1zm-4 1l1 1v-1h-1zm-4 1l1 1v-1h-1zm-9 2l1 1v-1h-1zm-13 3l1 1v-1h-1zm-12 3l1 1v-1h-1z"/>
    <path class="draw" d="M674 732c9 7 10 5 20 15l49 49 23 24c2 3 0 7 2 15l1-5c4 6 3 6 4 13l-4 1-1-8v8h-4l-1-17-9-14-4 2-15-16-44-45-10-8c-9-6-16-9-22-19 8-4 9 1 15 5zm79 80l1 1v-1h-1zm12 11l1 1v-1h-1z"/>
    <path class="draw" d="M761 870c16 6 28 7 43 16l8-14c2-1 5-2 7 0 2 3 0 6-2 8-3 5-6 15-13 15-6 0-9-5-17-8l-43-13 3-4c1-6 10-1 14 0zm-9 1l1 1v-1h-1zm3 1l1 1v-1h-1zm62 0l1 1v-1h-1zm-1 1l1 1v-1h-1zm-1 1l1 1v-1h-1zm-47 2l1 1v-1h-1zm46 0l1 1v-1h-1zm-43 1l1 1v-1h-1zm42 0l1 1v-1h-1zm-1 2l1 1v-1h-1zm-25 3l1 1v-1h-1zm23 0l1 1v-1h-1zm-18 2l1 1v-1h-1zm17 0l1 1v-1h-1zm-15 1l1 1v-1h-1zm2 1l1 1v-1h-1zm12 0l1 1v-1h-1zm-1 1l1 1v-1h-1zm-8 1l1 1v-1h-1zm3 3c3 0 3 0 5-3l-5 3z"/>
    <path class="draw" d="M588 906l20-4 9 5h8l43-16 11-1c-2 3-3 3-7 4 4 0 4 0 6 3v-2h1l1 4-3 1 2 4-12 6-14 5-14 8c-7 3-12 5-19-1l-6 4h5v3l-28 5-10 4-10 1-23 5v-4l-3-3 14-3 23-3c-3-4-6-10-1-14 3-2 6 0 7-4l12 1 22-3-16 1h-10l4-5c-5 2-11 4-17 2l5-3zm86-9l1 1v-1h-1zm3 1l1 1v-1h-1zm-34 12c-9 3-14 4-24 5 2 3 4 5 8 4 9-1 15-7 23-11 7-3 16-5 21-9-7 1-21 8-28 11zm32-9l1 1v-1h-1zm-26 1l1 1v-1h-1zm24 0l1 1v-1h-1zm-4 2l1 1v-1h-1zm-2 1l1 1v-1h-1zm-56 2l1 1v-1h-1zm51 0l1 1v-1h-1zm-3 1l1 1v-1h-1zm-13 6l1 1v-1h-1zm-57 3c-3 1-5 7-1 9h10v-9h-9zm15-1l1 8 10-2c-3-6-5-6-11-6zm-21 1l1 1v-1h-1zm51 3l1 1v-1h-1zm-15 1l1 1v-1h-1zm12 0l1 1v-1h-1zm-50 1l1 1v-1h-1zm47 0l1 1v-1h-1zm-3 1l1 1v-1h-1zm-43 1l1 1v-1h-1zm1 2l1 1v-1h-1zm23 1l-3-1c0 2 1 2 3 1zm1 0l5-1-5 1zm-23 1l1 1v-1h-1zm1 4l6-2-5-1-1 3zm-1 0l1 1v-1h-1zm-4 2l1 1v-1h-1zm-8 2l5-1-5 1zm-17 2l1 1v-1h-1z"/>
    <path class="draw" d="M702 882c5-1 8 0 12-3 10-6 10-11 15-17 3-3 6-3 9-5 4-2 5-5 7-6 2-3 15-6 17-4 2 1 2 2 2 3l-7 3 9-3 1 4-13 8-12 5c1-5 2-6 7-8l-11 3c4 2 2 4 1 8l3-1c-1 11-6 8-6 17h-6l1-5c-5 4-9 6-14 2l-14 3h7l-3 6 23-5c-4 6-8 5-15 7l-31 8v-4l8-2-7-2 3-2-9 1 1-4c9-1 14-5 22-7zm48-30l7-1-7 1zm7 2l1 1v-1h-1zm-1 1l1 1v-1h-1zm-11 1l1 1v-1h-1zm10 0l1 1v-1h-1zm-2 1l1 1v-1h-1zm-18 5l1 1v-1h-1zm-2 1l1 1v-1h-1zm-3 3l1 1v-1h-1zm5 1l1 1v-1h-1zm-1 1l1 1v-1h-1zm-1 1l1 1v-1h-1zm5 1l1 1v-1h-1zm-6 1l1 1v-1h-1zm5 0l1 1v-1h-1zm-1 2l1 1v-1h-1zm-6 1l1 1v-1h-1zm5 0l1 1v-1h-1zm-2 3l1 1v-1h-1zm-1 1l1 1v-1h-1zm-1 2l1 1v-1h-1zm-31 6l1 1v-1h-1zm-5 2l1 1v-1h-1zm10 4l1 1v-1h-1zm-3 1l1 1v-1h-1zm-14 1l1 1v-1h-1z"/>
    <path class="draw" d="M796 752c3-7 13-17 17-25l6-19c1-4 4-6 7-10 6-7 1-6 11-19 2-2 4-5 6-5l6 2-9 12-6 12-7 11c-3 5-2 12-8 21-7 13-18 20-18 36l1 21h-3l-1-5c0 4 0 5-3 7 0-10-3-30 1-39zm47-75l1 1v-1h-1zm-4 5l1 1v-1h-1zm-1 1l1 1v-1h-1zm-2 3l1 1v-1h-1zm-4 9l1 1v-1h-1zm-1 2l1 1v-1h-1zm-3 4l1 1v-1h-1zm-1 1l1 1v-1h-1zm-1 1l1 1v-1h-1zm-2 3l1 1v-1h-1zm-1 1l1 1v-1h-1zm-1 2l1 1v-1h-1zm-1 10v-5 5zm-5 10l1 1v-1h-1zm-2 3l1 1v-1h-1zm-2 3l1 1v-1h-1zm-1 1l1 1v-1h-1zm-2 3l1 1v-1h-1zm-1 1l1 1v-1h-1zm-2 3l1 1v-1h-1zm-1 1l1 1v-1h-1zm-2 3l1 1v-1h-1zm-1 1l1 1v-1h-1zm-1 2l1 1v-1h-1zm-1 1l1 1v-1h-1zm-1 2l1 1v-1h-1zm-1 23v-18c-2 4-2 14 0 18z"/>
    <path class="draw" d="M771 822l9-9 12-14 5-7 5-2-6 11 4 1v-4c5 3 12 8 8 14l2 3c3-4 5-1 7 3 4 9 7 18 13 27l8 10c5 3 22 8 28 10l19 7 38 12 23 7c7 1 8 0 10 5-13-1-19-3-31-7l1 3-14 2c10 0 30 0 38 5-10 5-12 1-22-1l-17-2-12-6c-13-4-21-2-25-2l-7-2-33-10 3-4-6-3c-3 3-5 3-9 4v-4l3-5c-3 2-8 4-12 4l-11-4-20-7c-5-1-12-2-15-7h11c-4 0-6-1-9-4 11-1 22 3 31 8 3 2 15 8 19 7 3 0 6-4 8-6l-16-2c-3-1-3-4-1-5h12c-10-15-11-30-26-42-5 9-15 18-23 24l-2-8zm24-21l1 1v-1h-1zm-1 1l1 1v-1h-1zm6 0l1 1v-1h-1zm-7 1l1 1v-1h-1zm-1 1l1 1v-1h-1zm-1 1l1 1v-1h-1zm11 0l1 1v-1h-1zm1 1l1 1v-1h-1zm1 1l1 1v-1h-1zm1 1l1 1v-1h-1zm-17 1l1 1v-1h-1zm18 0l1 1v-1h-1zm-19 1l1 1v-1h-1zm20 0l1 1v-1h-1zm5 8l1 1v-1h-1zm2 5l1 1v-1h-1zm-42 1l1 1v-1h-1zm44 4l1 1v-1h-1zm5 10l1 1v-1h-1zm1 2l1 1v-1h-1zm4 11h3l-1-3-2 3zm-48 1c5 2 15 6 19 5l-18-6-1 1zm39 0l6-1-6 1zm12-1l1 1v-1h-1zm1 2l1 1v-1h-1zm0 6c4 1 6 3 10 1l-8-5-2 4zm-1 0l1 1v-1h-1zm-27 1l1 1v-1h-1zm26 0l1 1v-1h-1zm5 2l1 1v-1h-1zm-8 1l1 1v-1h-1zm-12 1l1 1v-1h-1zm2 1l1 1v-1h-1zm21 0v4l30 9c6 1 12 3 18 1l-48-14zm-10 4l1 1v-1h-1zm28 9l1 1v-1h-1zm3 1l1 1v-1h-1zm4 1l1 1v-1h-1zm29 1l1 1v-1h-1zm10 0c-1 4-2 3-5 5 4 0 8 2 11-2h6l-12-3zm-31 1l1 1v-1h-1zm35 5l1 1v-1h-1zm1 1l1 1v-1h-1zm9 1l1 1v-1h-1z"/>
    <path class="draw" d="M752 880c10 1 33 10 43 14l27 9c2 6 6 3 10 4l18 5c7 4 5 8 13 11l11 4 36 11 18 5 16 15c5 5 13 10 15 17-17-1-23-21-35-27l-16-4-51-16c-7-3-6-7-12-10l-40-14-36-12c-4-2-14-5-18-5l-13 2-1-7 15-2zm-9 4l1 1v-1h-1zm-5 1l1 1v-1h-1z"/>
    <path class="draw" d="M959 900c1 4 6 5 10 7 15 7 13 6 29 7 12 1 13 5 21 8 2 2 4 1 7 2l14 4c7 0 33-5 34-5l9 3-12 5-32 4-16-4-6-1c-5-2-10-7-17-8l-19-2c-11-2-25-10-32-18l10-2zm10 11l1 1v-1h-1zm5 2l1 1v-1h-1zm18 5l8-1-8 1zm11 0l1 1v-1h-1zm2 1l1 1v-1h-1zm4 2l1 1v-1h-1zm2 1l1 1v-1h-1zm2 1l1 1v-1h-1zm18 6l1 1v-1h-1zm4 1l1 1v-1h-1z"/>
    <path class="draw" d="M1124 913l7 6 6 4 10 19c1 3 1 9 3 11 2 3 10 2 14 2 0 12-6 3-13 10-4 4-3 7-7 10 0-8-1-10 6-16-8-3-4-9-8-19v5l-3 1c5 2 4 3 4 8v21h-3c0-5 1-20-2-23-2-3-6-3-9-3-10 0-29 1-38-1 3-9 9-6 17-5 7 1 24 0 31-1-8-12-9-15-22-22-3-1-5-3-9-3v-4l3-1c-3-1-2-1-3-4l16 5zm-6 4h4l-3-1-1 1zm8 4l5 2-4-3-1 1zm7 0l1 1v-1h-1zm0 5l1 1v-1h-1zm2 3l1 1v-1h-1zm2 3l1 1v-1h-1zm2 3l1 1v-1h-1zm2 3l1 1v-1h-1zm-47 6l1 1v-1h-1zm6 2l10-1-10 1zm13 1l6-1-6 1z"/>
    <path class="draw" d="M1095 920c3 9 6 16-3 23l-1-3-2 4 1 7 2 20c12-5 9-5 13-12l4-9h7c-1 7-3 10-7 16l12-3 18-2v6c-15 1-14 3-21 5l-10 1c-6 1-14 4-20 0l-3 2c-1-5-2-25 0-30l5-12c1-5-3-9 2-10l1-3h2zm-3 18l1 1v-1h-1zm-4 27v-19c-2 4-2 15 0 19z"/>
    <path class="draw" d="M966 893l19 1 31 1c9 1 10 5 28 5l16 1 18-1 29 7v4h-7l4 1-1 3 4-2c-1 9-9 6-16 7v-4l3-1h-5l-6 3c-3 2-12 3-16 3-7-2-4-10-9-12l-20-2c-14 0-13-2-23-4l-22-2h-25c-5 0-7 1-10-4l16-1-16-1-2-3 10 1zm16 5l17-1-17 1zm28 1l6-1-6 1zm9 0l1 1v-1h-1zm3 1l1 1v-1h-1zm2 1l1 1v-1h-1zm30 4c7 0 7 0 11 6 1-5 1-5 5-7l-16 1zm14 4c4 7 11 8 16 1-6-2-10-3-16-1zm34 6l1 1v-1h-1zm-34 3l5-1-5 1z"/>
    <path class="draw" d="M829 658l-9-9-9-10c-2-3 1-6 4-6l8 7 12 12c3 2 10 8 12 12 1 4-2 6-4 8l-14-14zm-16-22l1 1v-1h-1zm1 1l1 1v-1h-1zm1 1l1 1v-1h-1zm1 1l1 1v-1h-1zm1 1l1 1v-1h-1zm1 1l1 1v-1h-1zm1 1l1 1v-1h-1zm1 1l1 1v-1h-1zm1 1l1 1v-1h-1zm1 1l1 1v-1h-1zm1 1l1 1v-1h-1zm1 1l1 1v-1h-1zm1 1l1 1v-1h-1zm1 1l1 1v-1h-1zm1 1l1 1v-1h-1zm1 1l1 1v-1h-1zm1 1l1 1v-1h-1zm1 1l1 1v-1h-1zm1 1l1 1v-1h-1zm1 1l1 1v-1h-1zm1 1l1 1v-1h-1zm1 1l1 1v-1h-1zm1 1l1 1v-1h-1zm1 1l1 1v-1h-1zm1 1l1 1v-1h-1zm8 7l-6-6c1 4 3 4 6 6z"/>
    <path class="draw" d="M683 706l17-4c9-3 14-7 22-11l9-4c4-3 7-10 16-16l10-3 23-11c4-2 9-9 12-13l22-27c9-8 13-7 20-15 2-3 11-16 16-14s0 8-2 10c-8 9-10 13-20 19 9-1 16-6 24-10 2-1 8-5 11-4 2 0 4 3 5 5l-29 15c-8 3-17 2-25 7l-28 33c-3 3-8 4-11 5l-12 6-11 4c-8 4-11 11-14 15l-11 4-7 4-17 9c-10 3-7-1-25 6-4 2-13 4-14 8l-25 3-32 7-32 14-10 2-2-7c13-2 20-7 31-12 7-3 28-9 36-9l-1 3 11-2h-9v-2c25-2 30-9 52-15zm164-114l1 1v-1h-1zm-1 1l1 1v-1h-1zm-1 1l1 1v-1h-1zm-1 1l1 1v-1h-1zm-1 1l1 1v-1h-1zm-1 1l1 1v-1h-1zm-2 3l1 1v-1h-1zm-1 1l1 1v-1h-1zm-1 1l1 1v-1h-1zm-1 1l1 1v-1h-1zm26 2l1 1v-1h-1zm-2 1l1 1v-1h-1zm-1 1l1 1v-1h-1zm-2 1l1 1v-1h-1zm-2 1l1 1v-1h-1zm-26 1l1 1v-1h-1zm24 0l1 1v-1h-1zm-2 1l1 1v-1h-1zm-25 1l1 1v-1h-1zm23 0l1 1v-1h-1zm-25 1l1 1v-1h-1zm18 3l1 1v-1h-1zm-24 1l1 1v-1h-1zm22 0l1 1v-1h-1zm-23 1l1 1v-1h-1zm21 0l1 1v-1h-1zm-34 17l10-10 15-4c-5 0-8 1-12-2-6 4-10 10-13 16zm31-16l1 1v-1h-1zm-23 10l1 1v-1h-1zm-9 6l1 1v-1h-1zm-1 1l1 1v-1h-1zm-1 1l1 1v-1h-1zm-3 4l1 1v-1h-1zm-1 1l1 1v-1h-1zm-17 19l1 1v-1h-1zm-3 1l1 1v-1h-1zm-13 6l1 1v-1h-1zm-2 1l1 1v-1h-1zm-2 1l1 1v-1h-1zm-7 2l1 1v-1h-1zm-8 4l1 1v-1h-1zm-7 7l1 1v-1h-1zm-2 3l1 1v-1h-1zm-4 4l1 1v-1h-1zm-2 1l1 1v-1h-1zm-3 1l1 1v-1h-1zm-3 1l1 1v-1h-1zm-2 1l1 1v-1h-1zm-2 1l1 1v-1h-1zm-3 2l1 1v-1h-1zm-3 2l1 1v-1h-1zm-2 1l1 1v-1h-1zm-3 2l1 1v-1h-1zm-32 9l1 1v-1h-1zm-5 2l1 1v-1h-1zm-20 9c5 0 6-1 10-4l-10 4zm-6 1l6-1-6 1zm-32 5l1 1v-1h-1zm-20 6l1 1v-1h-1zm-9 4l1 1v-1h-1zm-2 1l1 1v-1h-1zm-2 1l1 1v-1h-1zm-2 1l1 1v-1h-1zm-2 1l1 1v-1h-1zm-7 3l1 1v-1h-1z"/>
    <path class="draw" d="M649 560c3 3 0 5-2 8l-13 17-16 20-6 12c-8 11-10 13-12 27v12c7-5 20-19 25-26 4-5 14-20 19-22 7-3 12 8 16 6l11-12 8-3c8-1 11 0 16 6-6-1-15 0-20 4-4 4-10 12-14 14-5 2-9-5-13-6-3-1-8 6-10 8l-9 13-16 16c-4 4-8 10-14 8l3-3-5 2-4-4v-11l3-17 10-18 6-10 10-12 25-33 2 4zm31 42l1 1v-1h-1zm-4 1l1 1v-1h-1zm-2 1l1 1v-1h-1zm-61 1l1 1v-1h-1zm-3 6l1 1v-1h-1zm-13 33v-5 5zm-1 11v-7 7zm1 3l1 1v-1h-1z"/>
    <path class="draw" d="M653 555l2-1 11 12 8 9 20 21c-9 4-11-2-16-8l-22-22c-4-4-8-8-5-14l2 3zm0 3l1 1v-1h-1zm1 1l1 1v-1h-1z"/>
    <path class="draw" d="M712 580c2-3 6-9 10-9 7-1 14 9 18 11h9l7 2 20 2h9c3-1 6-4 8-7l12-15c5-6 6-11 14-7-2 6-6 10-11 15-3 4-13 18-17 20l-8 1-36-3h-7c-6-1-11-10-16-10-3 0-6 4-7 6-4 5-13 19-19 18l-5-2 2-2-3-2c10-4 13-10 20-18zm21 1l1 1v-1h-1zm1 1l1 1v-1h-1zm1 1l1 1v-1h-1zm7 3l1 1v-1h-1zm-2 1l1 1v-1h-1zm19 2l7-1-7 1zm15 1l7-1-7 1zm-67 1l1 1v-1h-1zm-9 9l1 1v-1h-1zm-3 1l1 1v-1h-1z"/>
    <path class="draw" d="M718 452l-33 44c-3 7 8 10 5 19-5 12-23 26-32 40l-6-3c5-12 26-28 30-38 3-6-8-10-6-17l10-15 26-33 6 3zm-34 38l1 1v-1h-1zm2 19l1 1v-1h-1zm1 2l1 1v-1h-1zm-1 2l1 1v-1h-1zm-1 2l1 1v-1h-1zm-1 2l1 1v-1h-1z"/>
    <path class="draw" d="M717 441l5 6c1 4-2 4-5 3 2-1 1-1 0-3l-1 3-3-1c-1-4-6-8-9-11-6-6-19-17-22-24l4-3c6 4 25 23 31 30z"/>
    <path class="draw" d="M700 395l31-10 80-24 57-17v7l-132 40-24 7-27 9-4-6 19-6zm160-46l1 1v-1h-1zm-3 1l1 1v-1h-1zm-7 2l1 1v-1h-1zm-3 1l1 1v-1h-1zm-10 3l1 1v-1h-1zm-3 1l1 1v-1h-1zm-7 2l1 1v-1h-1zm-3 1l1 1v-1h-1zm-3 1l1 1v-1h-1zm-7 2l1 1v-1h-1zm-3 1l1 1v-1h-1zm-7 2l1 1v-1h-1zm-3 1l1 1v-1h-1zm-3 1l1 1v-1h-1zm-4 1l1 1v-1h-1zm-3 1l1 1v-1h-1zm-3 1l1 1v-1h-1zm-7 2l1 1v-1h-1zm-3 1l1 1v-1h-1zm-7 2l1 1v-1h-1zm-3 1l1 1v-1h-1zm-3 1l1 1v-1h-1zm-7 2l1 1v-1h-1zm-3 1l1 1v-1h-1zm-7 2l1 1v-1h-1zm-3 1l1 1v-1h-1zm-10 3l1 1v-1h-1zm-3 1l1 1v-1h-1zm-7 2l1 1v-1h-1zm-3 1l1 1v-1h-1zm-7 2l1 1v-1h-1zm-3 1l1 1v-1h-1zm-3 1l1 1v-1h-1zm-10 3l1 1v-1h-1z"/>
    <path class="draw" d="M632 415c4-1 14-4 18-3s12 7 16 7l11-7 1 4c-1 4-7 9-11 10-5 0-15-7-19-7-4-1-16 3-21 5l-96 28-66 19-4-6 171-50zm36 6l1 1v-1h-1zm-197 44l1 1v-1h-1zm-4 1l1 1v-1h-1zm-3 1l1 1v-1h-1z"/>
    <path class="draw" d="M658 325l8 47 5 22 11 11-4 1 2 6c-16-7-17-18-19-33l-8-46-6-32 4 1 2-3 5 26zm5 50l1 1v-1h-1zm1 6l1 1v-1h-1zm1 5l1 1v-1h-1zm1 5l1 1v-1h-1zm2 6l1 1v-1h-1zm8 8l1 1v-1h-1z"/>
    <path class="draw" d="M294 406l-2-19c-1-3-2-7 1-9 2-3 11-5 15-5l31-5c8-2 13-4 19 4-11 0-33 4-45 6-4 1-13 2-15 5v10c2 7 3 9 0 16l-4-3zm53-37l1 1v-1h-1zm-7 1l1 1v-1h-1zm-6 1l1 1v-1h-1zm-13 2l1 1v-1h-1zm-6 1l1 1v-1h-1zm-6 1l1 1v-1h-1zm-5 1l1 1v-1h-1zm-9 16l1 1v-1h-1zm2 12v-5 5z"/>
    <path class="draw" d="M654 287l57-18 33-10 19-6 16-7 50-15 49-14 3 5c-5 2-13 3-16 8l-6 1c-4-2-11 1-15 2l-37 11-23 8-10 4-47 15-43 13-27 9-7 4 1-6-5 2 3 5c-11-1-22 3-32 6l-53 15-18 7-50 15-53 16-30 5-46 7-2-6 39-6 32-5 57-17 42-12 25-10 34-9 22-6-1 3 5-2-3-1 3-3 8 2-3-1c5-3 22-7 29-9zm204-61l4 1 1-3-5 2zm-3 0l1 1v-1h-1zm-3 1l1 1v-1h-1zm-40 12l1 1v-1h-1zm-140 45l1 1v-1h-1zm-13 4l1 1v-1h-1zm-3 1l1 1v-1h-1zm-3 1l1 1v-1h-1zm-14 4l1 1v-1h-1zm-4 1l1 1v-1h-1zm-12 3l1 1v-1h-1zm-191 57l1 1v-1h-1zm-12 2l1 1v-1h-1zm-12 2l1 1v-1h-1zm-6 1l1 1v-1h-1zm-6 1l1 1v-1h-1zm-18 3l1 1v-1h-1zm-6 1l1 1v-1h-1z"/>
    <path class="draw" d="M29 403l47 26 28 16h8l6 3c12 7 8 8 15 13l33 20 84 47 6 3 7 5 22 12 27 16 76 43 22 12c6 3 9 3 13 8l-5 2c-5 0-16-6-20-9l-60-34-61-35-21-12-10-4-8-6-36-21-53-30-19-10c-7-5-6-9-14-14-6-3-8-1-13-3-3 0-10-4-13-6l-69-39c-3-2-18-10-20-13l-1-5c7 1 22 11 29 15zm221 129l1 1v-1h-1z"/>
    <path class="draw" d="M320 241v-7h3c0 9 3 21 4 30l4 27 3 12 1 17c1 6 5 21 8 26s12 11 17 16l-8 1-7-4c-9-7-10-11-13-21-1-5-4-13-4-18v-9l-5-35-5-26-4-18c5 2 4 4 6 9zm2 14l1 1v-1h-1zm1 6l1 1v-1h-1zm5 33l1 1v-1h-1zm1 5l1 1v-1h-1zm3 20v-5 5zm3 17l1 1v-1h-1zm1 3l1 1v-1h-1zm1 3l1 1v-1h-1zm2 5l1 1v-1h-1z"/>
    <path class="draw" d="M363 364c5 4 6 19 12 24l17 10 35 36 11 15 10 9c6 4 8 3 11 10l-10-4-6-1-3-2-26-30-27-28-18-11-12-24c4 1 4 1 6 4-1-5-2-5-6-9l6 1zm1 11l1 1v-1h-1zm2 5l1 1v-1h-1zm3 7l1 1v-1h-1zm3 4l1 1v-1h-1zm2 1l1 1v-1h-1zm2 1l1 1v-1h-1zm2 1l1 1v-1h-1z"/>
    <path class="draw" d="M461 473c3-2 9 6 11 8l10 12c6 9 3 10 13 18l28 26c20 19 30 28 41 54l3 12 4 10v11c2 6 14 15 13 22 0 3-3 6-4 8l-7-3 3-7c-1-5-10-11-12-17v-11l-4-10-4-14c-6-13-15-27-25-37l-10-9-27-26-10-8-7-14c-3-5-6-7-10-11s-10-10-8-16l2 2zm20 26l1 1v-1h-1zm1 2l1 1v-1h-1zm1 2l1 1v-1h-1zm1 2l1 1v-1h-1zm1 2l1 1v-1h-1zm2 3l1 1v-1h-1zm62 61l1 1v-1h-1zm5 9l1 1v-1h-1zm1 2l1 1v-1h-1zm1 2l1 1v-1h-1zm1 2l1 1v-1h-1zm1 2l1 1v-1h-1zm1 2l1 1v-1h-1zm1 2l1 1v-1h-1zm1 3l1 1v-1h-1zm2 9l1 1v-1h-1zm3 7l1 1v-1h-1zm2 12v0zm1 6l1 1v-1h-1zm1 1l1 1v-1h-1zm8 10l1 1v-1h-1z"/>
    <path class="draw" d="M935 501l7 2 4-5c0 9 3 30 6 38l4 6c-5 1-6 0-8-5 0 5 0 6-4 9l12 1-1-3 7 3c-3 8-8 2-14 2s-12 4-15 9c-2 3-6 10-6 13l4 18c5 15 8 16-1 22l-10-32-3 1-1-4c4 0 5 0 8 3-2-9-2-7 1-16-7 7-3 10-11 8l-1 4-6-8-4-4-1-3v-5c-3-12-14-22-5-35l11-7c-3 1-10 5-12 2l-2-7v9h-3v-4l-12 3-30 33-4-3c3-7 13-18 19-24l10-11 25-8v4l4-1c-5-4 3-5 6-6 10-3 20-5 29-11 2 5 2 9-3 12zm-6-3c4 1 6 1 8-3l-8 3zm0 1l1 1v-1h-1zm-1 4l1 1v-1h-1zm-12 1l1 1v-1h-1zm10 0l1 1v-1h-1zm-10 9l-7 5 2 10 8 25c12-5 12-8 26-11l-7-38-22 9zm27-4v-5 5zm-22-3l1 1v-1h-1zm-2 1l1 1v-1h-1zm-2 1l1 1v-1h-1zm-16 1l1 1v-1h-1zm14 0l1 1v-1h-1zm-2 1l1 1v-1h-1zm-2 1l1 1v-1h-1zm-9 22c3 6 6 15 10 20-1-6-7-26-11-31-1 4 0 7 1 11zm-2 6l-1-5 1 5zm4 12c2 5 2 6 1 11l6 2c0-7 2-6 8-7l7-1 1 5 5-10c-5 2-17 8-23 4-3-2-6-12-8-16-1 4 2 8 3 12zm52-4l1 1v-1h-1zm-22 2l1 1v-1h-1zm-18 16l1 1v-1h-1zm-4 2l1 1v-1h-1zm18 32l1 1v-1h-1zm1 3l1 1v-1h-1z"/>
    <path class="draw" d="M882 590l7-3 14-8c3-2 7-5 8 0l5 2c-8 3-21 11-27 17 6 6 16 20 2 23l-2-1v-4l-6 5c-6-5-12-10-15-17l6-4h-6l-1 3c-7-5-12-9-11-18 10 6 9 12 19 11-4-5-11-9-8-16-3-3-3-5-3-9 5 4 13 17 18 19zm-15-9l1 1v-1h-1zm39 0l1 1v-1h-1zm-5 3l1 1v-1h-1zm-28 3l1 1v-1h-1zm23 0l1 1v-1h-1zm-22 1l1 1v-1h-1zm20 0l1 1v-1h-1zm-19 1l1 1v-1h-1zm1 1l1 1v-1h-1zm15 0l1 1v-1h-1zm-14 1l1 1v-1h-1zm12 0l1 1v-1h-1zm-11 1l1 1v-1h-1zm1 1l-1 5 8 2 3-8-10 1zm-3 5l1 1v-1h-1zm10 2l1 1v-1h-1zm-7 2l-2 2c2 2 8 11 12 10l2-2c-2-3-8-11-12-10zm8-1l1 1v-1h-1zm3 4l1 1v-1h-1zm1 1l1 1v-1h-1zm2 3l1 1v-1h-1zm-2 9l1 1v-1h-1z"/>
    <path class="draw" d="M874 146c1 13 7 43 10 56l8 26 2 25 7 43c4 15 13 24 15 33l6 31 9 52 8 51c1 7 4 19 3 25l-3-2-1 3h-2l-4-28-10-62-11-61-35 11 5 28 8 49 4 19 4 13 5 43-6 1-5-40-4-16-11-60-7-44 40-11-13-24c-3-9-8-43-9-53l-2-18-6-22-9-45c-3-13-3-26-4-39 0-4-3-12 2-13l1-7c5 8 4 27 5 36zm-4-10v0zm1 16v0zm1 7v-7 7zm17 76v-5 5zm1 10v-6 6zm1 10v-6 6zm1 7v-5 5zm10 48l1 1v-1h-1zm1 2l1 1v-1h-1zm1 2l1 1v-1h-1zm1 2l1 1v-1h-1zm1 2l1 1v-1h-1zm2 3l1 1v-1h-1zm1 2l1 1v-1h-1zm1 2l1 1v-1h-1zm4 11l-1-7c-1 3-1 4 1 7zm-7-1l1 1v-1h-1zm-4 1l1 1v-1h-1zm-3 1l1 1v-1h-1zm-7 2l1 1v-1h-1zm-4 1l1 1v-1h-1zm-3 1l1 1v-1h-1zm-12 1l-4 5c4 0 7-1 10-4l-6-1zm8 0l1 1v-1h-1zm-9 9l1 1v-1h-1zm1 5l1 1v-1h-1zm1 6l1 1v-1h-1zm1 6l1 1v-1h-1zm1 6l1 1v-1h-1zm1 6l1 1v-1h-1zm1 6l1 1v-1h-1zm1 6l1 1v-1h-1zm2 11l1 1v-1h-1zm1 6l1 1v-1h-1zm1 6l1 1v-1h-1zm1 6l1 1v-1h-1zm1 6l1 1v-1h-1zm1 6l1 1v-1h-1zm1 6l1 1v-1h-1zm1 5l1 1v-1h-1zm4 14l1 1v-1h-1zm4 31l1 1v-1h-1zm1 7l1 1v-1h-1z"/>
    <path class="draw" d="M866 233l14 79c1 5 5 21 1 25-2 2-7 3-10 4l5-7v-9l-3-18-13-74h6zm-3 3l1 1v-1h-1zm1 5l1 1v-1h-1zm2 11l1 1v-1h-1zm2 11l1 1v-1h-1zm3 17l1 1v-1h-1zm2 11l1 1v-1h-1zm1 6l1 1v-1h-1zm1 5l1 1v-1h-1zm1 6l1 1v-1h-1zm1 6l1 1v-1h-1zm1 6l1 1v-1h-1zm1 6l1 1v-1h-1z"/>
    <!-- cubic-bezier(0.55, 0.06, 0.68, 0.19)-->
</svg>