<svg xmlns="http://www.w3.org/2000/svg" width="434.731" height="210.851" viewBox="0 0 115.023 55.788"><g><path style="opacity:1;fill:#FFF;fill-opacity:1;stroke:none;stroke-width:1;stroke-linecap:round;stroke-linejoin:round;stroke-miterlimit:4;stroke-dasharray:none" d="m39.656 60.002-9.198.094-2.228-6.408 6.448-.034s2.94-12.461 27.262-18.308l-.546-3.235s13.868-3.089 32.18-.432c16.28 2.362 36.563 9.31 39.663 25.395l10.016.19-.024 3h-10.016s.365 4.777-6.728 11.989c-6.84 6.953-21.833 14.587-49.094 14.115l-.567-2.93s-16.348-.378-24.852-5.197l3.968-4.063s14.095 5.164 28.644 3.532c14.635-1.642 30.085-5.658 33.345-18.179 0 0 2.4-18.864-38.082-21.28 0 0-40.79.11-40.19 21.751z" transform="translate(-28.23 -30.6)"/><path style="opacity:1;fill:#FFF;fill-opacity:1;stroke:none;stroke-width:1;stroke-linecap:round;stroke-linejoin:round;stroke-miterlimit:4;stroke-dasharray:none" d="m88.4 57.689 6.283-.095v2.22l-6.284-.047s-.565 3.772-8.693 4.111c-3.402.142-9.293-1.514-9.213-5.008.063-2.81 3.257-4.763 9.071-4.82 7.534-.073 8.835 3.639 8.835 3.639z" transform="translate(-28.23 -30.6)"/></g></svg>