<svg xmlns="http://www.w3.org/2000/svg" width="622.284" height="302" viewBox="0 0 164.646 79.904"><path style="opacity:1;fill:#e900d9;fill-opacity:1;stroke-width:1;stroke-linecap:round;stroke-linejoin:round;stroke-miterlimit:4;stroke-dasharray:none" d="m15.176 93.587 17.991-73.554h15.346l18.578 31.75 34.339-31.75h14.703L97.99 93.587H84.232L97.726 40.14 61.742 73.214 42.163 40.141 28.934 93.587Z" transform="translate(-8.467 -13.758)"/><path style="opacity:1;fill:#0abdc6;fill-opacity:1;stroke-width:1;stroke-linecap:round;stroke-linejoin:round;stroke-miterlimit:4;stroke-dasharray:none" d="m8.467 87.313 17.991-73.555h15.346l18.578 31.75 34.339-31.75h14.703L91.281 87.312H77.523l13.494-53.445L55.033 66.94 35.454 33.867 22.225 87.313Z" transform="translate(-8.467 -13.758)"/><path style="opacity:1;fill:#e900d9;fill-opacity:1;stroke-width:1.00833;stroke-linecap:round;stroke-linejoin:round;stroke-miterlimit:4;stroke-dasharray:none" d="M102.479 20.108 84.138 93.663H97.62l6.336-25.136h24.154l14.816 25.136h14.673l1-3.762-12.767-21.374c17.198 1.334 21.629-13.213 21.629-13.213l5.621-23.3c.667-11.29-9.909-11.906-9.909-11.906zm55.12 13.244s2.144.048 1.477 1.62-4.62 18.628-4.62 18.628-.382.978-1.764 1.169c-1.381.19-44.496 0-44.496 0s-1.096-.042-.524-1.852c.572-1.81 4.621-18.183 4.621-18.183s.429-1.635 2.096-1.396c1.668.238 43.21 0 43.21 0z" transform="translate(-8.467 -13.758)"/><path style="opacity:1;fill:#0abdc6;fill-opacity:1;stroke-width:1.00833;stroke-linecap:round;stroke-linejoin:round;stroke-miterlimit:4;stroke-dasharray:none" d="M96.263 13.758 77.922 87.313h13.482l6.336-25.136h24.154l14.816 25.136h14.673l1-3.762-12.767-21.374c17.198 1.334 21.629-13.213 21.629-13.213l5.621-23.3c.667-11.29-9.909-11.906-9.909-11.906zm55.12 13.244s2.144.048 1.477 1.62-4.62 18.628-4.62 18.628-.382.978-1.764 1.169c-1.381.19-44.496 0-44.496 0s-1.096-.042-.524-1.852c.572-1.81 4.621-18.183 4.621-18.183s.429-1.635 2.096-1.396c1.668.238 43.21 0 43.21 0z" transform="translate(-8.467 -13.758)"/></svg>